<?xml version="1.0" standalone="no"?>
<!DOCTYPE svg PUBLIC "-//W3C//DTD SVG 1.1//EN" "http://www.w3.org/Graphics/SVG/1.1/DTD/svg11.dtd" >
<svg xmlns="http://www.w3.org/2000/svg">
<metadata>
This is a custom SVG webfont generated by Font Squirrel.
Copyright   : Copyright c 1995 Adobe Systems Incorporated All Rights ReservedITC Franklin Gothic is a registered trademark of International Typeface Corporation
</metadata>
<defs>
<font id="ITCFranklinGothicMdCn" horiz-adv-x="1046" >
<font-face units-per-em="2048" ascent="1536" descent="-512" />
<missing-glyph horiz-adv-x="512" />
<glyph unicode=" "  horiz-adv-x="512" />
<glyph unicode="&#x09;" horiz-adv-x="512" />
<glyph unicode="&#xa0;" horiz-adv-x="512" />
<glyph unicode="!" horiz-adv-x="698" d="M211 1366h276l-69 -997h-137zM236 0v252h227v-252h-227z" />
<glyph unicode="&#x22;" horiz-adv-x="768" d="M123 1366h211l-33 -561h-145zM436 1366h211l-33 -561h-145z" />
<glyph unicode="#" d="M20 426l23 139h197l45 264h-197l23 140h196l68 397h147l-67 -397h227l66 397h147l-66 -397h197l-22 -140h-197l-45 -264h196l-22 -139h-197l-71 -426h-148l72 426h-227l-72 -426h-148l72 426h-197zM387 565h227l45 264h-227z" />
<glyph unicode="$" d="M94 369l178 59q25 -92 68 -145.5t133 -75.5v407q-53 16 -92 33t-102.5 57.5t-99.5 111.5t-36 163t39 171t105 124q78 51 180 65v136h125v-136q147 -18 221 -83.5t113 -190.5l-162 -68q-31 86 -71 127t-107 56v-377q59 -16 95 -28.5t94.5 -44.5t92 -68.5t60 -99 t26.5 -140.5q0 -193 -139 -303q-80 -61 -223 -80v-174h-125v174q-174 23 -254 106t-119 224zM336 1006q0 -127 137 -168v338q-137 -37 -137 -170zM586 207q174 27 174 186q0 51 -17.5 87t-50.5 56.5t-54.5 28.5t-51.5 17v-375z" />
<glyph unicode="%" horiz-adv-x="1394" d="M86 1026q0 168 73.5 260t196.5 92t196 -93t73 -259q0 -176 -75 -265t-194 -89q-121 0 -195.5 91t-74.5 263zM246 1026q0 -133 29.5 -181t80.5 -48q109 0 109 229q0 227 -109 227q-51 0 -80.5 -46t-29.5 -181zM299 0l666 1366h135l-666 -1366h-135zM772 340q0 174 74 264 t194.5 90t194.5 -92t74 -262q0 -168 -74 -260t-195 -92q-123 0 -195.5 92t-72.5 260zM930 338q0 -94 18 -150q27 -76 92 -75q53 0 81 50t28 177q0 229 -109 229q-53 0 -81.5 -50t-28.5 -181z" />
<glyph unicode="&#x26;" horiz-adv-x="1290" d="M121 377q0 264 297 403q-119 190 -119 316q0 113 87 204t235 91q154 0 230.5 -89.5t76.5 -207.5q0 -213 -250 -355l233 -336q78 123 121 359l168 -37q-49 -268 -182 -465q74 -92 143 -92q18 0 64 8v-176q-74 -18 -113 -18q-55 0 -103 23.5t-71 46t-57 65.5 q-45 -39 -79 -63.5t-110 -51.5t-160 -27q-203 0 -307 121t-104 281zM338 387q0 -104 60.5 -173t162.5 -69q57 0 105.5 19.5t68 36t49.5 47.5l-278 405q-43 -27 -71.5 -50t-62.5 -82.5t-34 -133.5zM498 1100q0 -100 92 -238q158 94 158 234q0 63 -34 102t-89 39 q-53 0 -90 -37t-37 -100z" />
<glyph unicode="'" horiz-adv-x="452" d="M121 1366h211l-33 -561h-145z" />
<glyph unicode="(" horiz-adv-x="663" d="M109 512q0 463 276 854h166q-233 -387 -234 -854q0 -469 234 -854h-166q-276 395 -276 854z" />
<glyph unicode=")" horiz-adv-x="663" d="M113 -342q233 387 233 854t-233 854h166q113 -162 170 -307q106 -264 106 -547q0 -455 -276 -854h-166z" />
<glyph unicode="*" d="M176 897l236 107l-236 104l70 137l225 -149l-22 270h149l-23 -270l226 149l69 -137l-235 -104l235 -107l-69 -135l-226 149l23 -270h-149l22 270l-225 -149z" />
<glyph unicode="+" d="M104 600v166h332v336h174v-336h332v-166h-332v-336h-174v336h-332z" />
<glyph unicode="," horiz-adv-x="489" d="M121 -289l125 289h-105v258h228v-246l-148 -301h-100z" />
<glyph unicode="-" horiz-adv-x="593" d="M80 428v168h432v-168h-432z" />
<glyph unicode="." horiz-adv-x="489" d="M131 0v258h227v-258h-227z" />
<glyph unicode="/" horiz-adv-x="976" d="M-31 -342l754 1708h156l-754 -1708h-156z" />
<glyph unicode="0" d="M78 666q0 117 10 213t39 194t77 166t129 110t189 42q104 0 184 -40t129.5 -104.5t80 -158t42 -186.5t11.5 -202q0 -117 -9.5 -212t-39 -193t-76.5 -166t-130 -111t-192 -43q-444 1 -444 691zM311 682q0 -125 8.5 -214t31 -167t65.5 -118t106 -40q61 0 104.5 38t67 112 t32.5 167t9 222q0 125 -9 215t-30.5 168t-65.5 118t-108 40q-66 0 -108.5 -42t-64 -122t-30 -168t-8.5 -209z" />
<glyph unicode="1" d="M213 909v211q178 102 297 260h166v-1212h221v-168h-678v168h236v936q-92 -111 -242 -195z" />
<glyph unicode="2" d="M66 0v197q375 317 522 520q94 127 94 258q0 90 -46 159.5t-147 69.5q-184 0 -219 -276l-204 43q10 49 19 85t42 105.5t76 113.5t123 80t180 36q203 0 306 -118t103 -284q0 -170 -123.5 -347t-484.5 -443h617l-11 -199h-847z" />
<glyph unicode="3" d="M41 340l195 47q49 -233 243 -233q90 0 154.5 58t64.5 181q0 66 -21.5 112t-50 68.5t-72.5 35t-69.5 14.5t-62.5 2h-86v168h86q127 0 178 38q72 53 72 173q0 92 -47 152.5t-142 60.5q-55 0 -97 -20.5t-65.5 -58.5t-34 -63.5t-18.5 -60.5l-190 45q94 332 426 332 q176 0 285.5 -94.5t109.5 -272.5q0 -74 -20.5 -129t-59.5 -90t-65.5 -51.5t-67.5 -34.5q125 -39 186 -121q63 -86 64 -215q0 -197 -126 -302.5t-321 -105.5q-227 0 -348 138q-71 77 -100 227z" />
<glyph unicode="4" d="M61 326v166l494 899h258v-893h170v-172h-170v-326h-219v326h-533zM242 492h362v698z" />
<glyph unicode="5" d="M84 326l203 49q12 -45 21 -69.5t34 -64.5t69 -59.5t105 -19.5q109 0 164 71q61 78 61 220q0 117 -50 196.5t-169 79.5q-51 0 -90 -14.5t-63.5 -42t-35.5 -46t-24 -46.5l-170 36l43 750h709l-21 -199h-518l-20 -379q29 37 51.5 58.5t77.5 45t125 23.5q162 0 268.5 -114.5 t106.5 -339.5q0 -244 -129.5 -365t-319.5 -121q-195 0 -311 117q-86 84 -117 234z" />
<glyph unicode="6" d="M111 651q0 510 249 676q96 63 220 64q309 0 391 -332l-187 -60q-10 41 -19 66t-31.5 65.5t-62.5 62t-96 21.5q-63 0 -109 -32.5t-72.5 -81.5t-43 -126t-22.5 -142.5t-9 -153.5q16 37 33 61.5t50.5 62.5t87 58.5t120.5 20.5q150 0 261.5 -117t111.5 -330 q0 -211 -115.5 -335t-304.5 -124q-86 0 -157.5 30t-113.5 69t-75 92t-44 83t-19 58q-43 162 -43 344zM344 428q0 -115 55.5 -196.5t161.5 -81.5q203 0 203 280q0 25 -1 46.5t-12.5 67.5t-30 77.5t-59 57.5t-96.5 26q-119 0 -170 -87.5t-51 -189.5z" />
<glyph unicode="7" d="M115 1167l16 199h789v-160q-55 -74 -93.5 -132t-99.5 -196.5t-106 -304.5q-74 -266 -74 -573h-240q2 627 410 1167h-602z" />
<glyph unicode="8" d="M70 348q0 78 24.5 139.5t70.5 102.5t77.5 61.5t79.5 42.5q-41 25 -67 45.5t-63.5 59.5t-57 94t-19.5 123q0 66 21.5 128t67.5 119.5t132 92.5t199 35q231 0 337 -144q63 -90 64 -205q0 -68 -21.5 -122t-61.5 -90.5t-65.5 -54t-64.5 -38.5q254 -127 254 -362 q0 -162 -117 -281t-348 -119q-211 0 -328 101q-114 100 -114 272zM272 360q0 -109 72 -166t176 -57q98 0 169 53.5t71 149.5q0 55 -21.5 98t-68.5 76t-84 51.5t-103 44.5q-43 -20 -68.5 -34.5t-64.5 -45t-58.5 -74t-19.5 -96.5zM332 1047q0 -92 60.5 -145.5t160.5 -92.5 q57 31 89 52.5t64.5 69.5t32.5 107q0 80 -54 137.5t-150 57.5q-88 0 -145.5 -51t-57.5 -135z" />
<glyph unicode="9" d="M66 931.5q0 192.5 112.5 326t317.5 133.5q438 0 438 -658q0 -758 -471 -758q-78 0 -140.5 22.5t-98.5 50.5t-65.5 76t-41 75.5t-27.5 74.5l195 58q10 -37 19 -60.5t29.5 -56.5t56.5 -49t87 -16q61 0 106.5 33.5t70 82.5t40 125t20.5 134.5t7 138.5q-20 -37 -35.5 -58.5 t-49.5 -54.5t-82 -50.5t-112 -17.5q-164 0 -270 128t-106 320.5zM285 938q0 -119 53 -193.5t154 -74.5q111 0 160.5 85t49.5 187q0 106 -52 189t-156 83q-88 0 -148.5 -69.5t-60.5 -206.5z" />
<glyph unicode=":" horiz-adv-x="489" d="M131 0v258h227v-258h-227zM131 752v258h227v-258h-227z" />
<glyph unicode=";" horiz-adv-x="489" d="M121 -289l125 289h-105v258h228v-246l-148 -301h-100zM141 752v258h228v-258h-228z" />
<glyph unicode="&#x3c;" d="M80 594v178l887 432v-205l-666 -317l666 -315v-207z" />
<glyph unicode="=" d="M104 459v166h838v-166h-838zM104 739v166h838v-166h-838z" />
<glyph unicode="&#x3e;" d="M80 160v207l665 317l-665 315v205l887 -434v-176z" />
<glyph unicode="?" horiz-adv-x="1011" d="M78 967q18 182 96 284q106 139 318 140q186 0 288.5 -104.5t102.5 -268.5q0 -90 -34 -166t-70 -113t-101 -92q-94 -78 -113.5 -123t-15.5 -159h-189q4 197 26 251t146 160q123 109 123 246q0 94 -48 142t-128 48q-186 0 -207 -282zM342 0v246h223v-246h-223z" />
<glyph unicode="@" horiz-adv-x="1220" d="M14 668q0 313 171 523t466 210q264 0 409.5 -171t145.5 -444q0 -227 -96 -367t-236 -140q-41 0 -68.5 9t-42.5 29.5t-21.5 35t-14.5 42.5q-18 -33 -31.5 -52t-53.5 -44t-93 -25q-98 0 -159.5 88.5t-61.5 241.5q0 184 79.5 316.5t210.5 132.5q113 0 162 -125l17 110h118 l-59 -424q-12 -86 -12 -135q0 -41 12 -55t39 -14q72 0 122 100t50 260q0 256 -119 383t-301 127q-223 0 -353 -176t-130 -430t133 -420t375 -166q188 0 362 107l47 -109q-213 -119 -415 -119q-293 0 -472.5 189.5t-179.5 511.5zM485 608q0 -86 26 -135t69 -49q47 0 79.5 43 t44 107.5t14.5 98.5t3 56q0 174 -94 174q-70 0 -106 -91t-36 -204z" />
<glyph unicode="A" horiz-adv-x="1011" d="M-8 0l395 1366h254l365 -1366h-230l-86 342h-397l-84 -342h-217zM336 520h309l-153 627z" />
<glyph unicode="B" horiz-adv-x="1116" d="M131 0v1366h412q88 0 135 -3t112.5 -28.5t104.5 -74.5q78 -98 78 -242q0 -76 -20.5 -133.5t-58.5 -90t-62.5 -47t-61.5 -28.5q98 -33 152 -82q94 -102 94 -256q0 -98 -40 -185t-116 -130q-74 -43 -140.5 -54.5t-170.5 -11.5h-418zM352 180h183q250 0 249 221 q0 223 -268 224h-164v-445zM352 799h144q37 0 63.5 2t64.5 13t60.5 30.5t39.5 59.5t17 95q0 68 -23.5 111t-65.5 58.5t-68.5 19.5t-67.5 4h-164v-393z" />
<glyph unicode="C" horiz-adv-x="1081" d="M86 678q0 82 7 158.5t38 183t81 183.5t146.5 132.5t225.5 55.5q90 0 162.5 -25t118.5 -72t77 -91t49.5 -108.5t24.5 -94t12 -76.5l-211 -29q-8 61 -16 100t-32 94.5t-70 85t-111 29.5q-262 0 -262 -532q0 -510 262 -510q100 0 151.5 70.5t77.5 226.5l209 -29 q-68 -455 -446 -455q-127 0 -221.5 53.5t-144.5 128t-81 178t-39 182.5t-8 161z" />
<glyph unicode="D" horiz-adv-x="1150" d="M133 0v1366h307q315 0 465 -168q160 -186 160 -504q0 -211 -70.5 -367.5t-187.5 -238.5q-125 -88 -350 -88h-324zM358 180h95q160 0 237 82q135 129 135 420q0 504 -372 504h-95v-1006z" />
<glyph unicode="E" horiz-adv-x="942" d="M131 0v1366h780v-180h-555v-393h437v-181h-437v-428h566v-184h-791z" />
<glyph unicode="F" horiz-adv-x="872" d="M131 0v1366h758v-180h-533v-410h426v-180h-426v-596h-225z" />
<glyph unicode="G" horiz-adv-x="1150" d="M86 664q0 72 7 141t24.5 157.5t54.5 160t90 134t140 98.5t196 36q113 0 196 -34t132 -97.5t75.5 -129t42.5 -155.5l-204 -51q-14 66 -25.5 100.5t-38 83.5t-69.5 72.5t-107 23.5q-274 0 -274 -520q0 -522 278 -522q236 0 236 358h-244v180h455v-710h-121l-29 174 q-29 -47 -54.5 -80t-100 -71t-173.5 -38q-137 0 -237 64.5t-152.5 173.5t-75 220.5t-22.5 230.5z" />
<glyph unicode="H" horiz-adv-x="1116" d="M131 0v1366h225v-567h404v567h225v-1366h-225v608h-404v-608h-225z" />
<glyph unicode="I" horiz-adv-x="489" d="M131 0v1366h225v-1366h-225z" />
<glyph unicode="J" horiz-adv-x="628" d="M-33 0v186q74 -18 133 -18q51 0 84 14.5t52.5 36t27.5 71.5t10 94t2 132v850h226v-850q0 -78 -1 -118t-7.5 -107.5t-19.5 -104t-38.5 -83t-63.5 -70t-95.5 -41t-133.5 -17.5q-65 0 -176 25z" />
<glyph unicode="K" d="M131 0v1366h225v-651l412 651h240l-353 -502l412 -864h-244l-305 676l-162 -227v-449h-225z" />
<glyph unicode="L" horiz-adv-x="837" d="M131 0v1366h225v-1176h484v-190h-709z" />
<glyph unicode="M" horiz-adv-x="1464" d="M127 0v1366h334l272 -985l279 985h321v-1366h-213v1165l-323 -1165h-164l-318 1167v-1167h-188z" />
<glyph unicode="N" horiz-adv-x="1150" d="M123 0v1366h266l451 -985v985h188v-1366h-211l-506 1094v-1094h-188z" />
<glyph unicode="O" horiz-adv-x="1150" d="M86 682q0 133 20.5 245.5t70.5 223.5t152.5 175.5t248 64.5t247 -63.5t151.5 -174.5t70.5 -223.5t20.5 -247.5q0 -96 -9 -182t-41 -186.5t-82 -171t-142.5 -119t-212.5 -48.5q-119 0 -209 44t-142.5 113t-86 165t-45 188.5t-11.5 196.5zM324 682q0 -250 55 -381 q31 -70 77 -104.5t124 -34.5q133 0 194 139q55 131 55 381q0 254 -55 383q-63 139 -196 139q-137 0 -199 -139q-55 -127 -55 -383z" />
<glyph unicode="P" horiz-adv-x="1011" d="M131 0v1366h338q139 0 232.5 -21.5t158.5 -91.5q111 -117 111 -305q0 -92 -35 -189t-121 -155q-102 -72 -342 -72h-117v-532h-225zM356 713h113q43 0 68.5 2t67.5 14t66.5 35.5t43 72t18.5 115.5q0 100 -47 168q-35 49 -81 60.5t-136 11.5h-113v-479z" />
<glyph unicode="Q" horiz-adv-x="1150" d="M86 682q0 135 21.5 248.5t71.5 223.5t151.5 173.5t247.5 63.5q125 0 217 -50.5t142 -123t81 -175t39 -185.5t8 -175q0 -164 -37 -324q-20 -86 -52 -149.5t-76 -102t-72.5 -56t-73.5 -40.5q0 -76 25.5 -111.5t107.5 -35.5q57 0 104 18v-172q-63 -25 -133 -24 q-178 0 -244 122q-33 57 -36 170q-492 0 -492 705zM324 682q0 -279 62.5 -399.5t188.5 -120.5q47 0 83 15.5t79 62.5t66.5 159.5t23.5 282.5q0 254 -55 381q-29 66 -73 103.5t-124 37.5q-137 0 -196 -139q-55 -127 -55 -383z" />
<glyph unicode="R" horiz-adv-x="1081" d="M131 0v1366h412q195 0 293 -70q143 -104 143 -319q0 -250 -211 -359l260 -618h-244l-215 571h-213v-571h-225zM356 745h174q117 0 171.5 62.5t54.5 171.5q0 213 -224 213h-176v-447z" />
<glyph unicode="S" d="M47 356l201 58q8 -31 13 -51.5t26.5 -62.5t48 -68.5t77 -48t113.5 -21.5q123 0 172.5 63.5t49.5 132.5q0 88 -59.5 134.5t-174.5 89.5q-129 49 -183.5 74.5t-105.5 70.5q-123 106 -123 279q0 156 108.5 270.5t311.5 114.5q92 0 165 -27t114 -60.5t74.5 -88t45 -83 t23.5 -71.5l-192 -68q-35 106 -89.5 158.5t-152.5 52.5q-96 0 -141 -55t-45 -117q0 -45 16 -76.5t62.5 -60.5t80 -44t113.5 -46q66 -25 102.5 -41t98 -53t95.5 -76t60.5 -103.5t26.5 -142.5q0 -166 -118 -290t-341 -124q-109 0 -194.5 33t-130.5 73t-81 103.5t-46.5 95 t-20.5 76.5z" />
<glyph unicode="T" horiz-adv-x="768" d="M-33 1174v192h832v-192h-305v-1174h-226v1174h-301z" />
<glyph unicode="U" horiz-adv-x="1116" d="M121 518v848h221v-848q0 -72 2 -108.5t13.5 -93t34 -84t67.5 -49t110.5 -21.5t109.5 20.5t65.5 47t32.5 83t13.5 94t2.5 115.5v844h202v-834q0 -125 -6 -193.5t-37.5 -149t-97.5 -130.5q-115 -84 -297 -84q-90 0 -159.5 18.5t-114.5 45.5t-78 75t-48.5 88t-24.5 104.5 t-10 104t-1 107.5z" />
<glyph unicode="V" horiz-adv-x="942" d="M-8 1366h237l260 -1090l261 1090h198l-358 -1370l-246 4z" />
<glyph unicode="W" horiz-adv-x="1429" d="M4 1366h232l184 -1024l213 1024h196l211 -1024l195 1024h190l-286 -1370h-205l-215 1003l-213 -1003h-207z" />
<glyph unicode="X" horiz-adv-x="907" d="M-29 0l367 707l-322 659h252l195 -436l219 436h211l-318 -621l359 -745h-252l-233 522l-263 -522h-215z" />
<glyph unicode="Y" horiz-adv-x="837" d="M-63 1366h245l250 -569l254 569h217l-379 -788v-578h-225v578z" />
<glyph unicode="Z" horiz-adv-x="872" d="M2 0v174l598 1008h-561v184h819v-158l-606 -1018h620v-190h-870z" />
<glyph unicode="[" horiz-adv-x="663" d="M162 -342v1708h354v-115h-160v-1478h160v-115h-354z" />
<glyph unicode="\" horiz-adv-x="976" d="M98 1366h156l754 -1708h-156z" />
<glyph unicode="]" horiz-adv-x="663" d="M147 -227h160v1478h-160v115h355v-1708h-355v115z" />
<glyph unicode="^" d="M31 647l387 733h211l387 -733h-197l-297 570l-295 -570h-196z" />
<glyph unicode="_" horiz-adv-x="1024" d="M0 -154h1024v-102h-1024v102z" />
<glyph unicode="`" horiz-adv-x="1024" d="M238 1352l108 137l320 -281l-76 -78z" />
<glyph unicode="a" horiz-adv-x="942" d="M72 266q0 119 57 201t152 115q123 42 296 41h46v41q0 41 -3.5 67.5t-15.5 66.5t-45 61.5t-86 21.5q-133 0 -164 -158l-200 27q16 90 63 152.5t111.5 88t111.5 34.5t94 9q186 0 279 -108q29 -33 44 -90.5t17 -98.5t2 -114v-342q0 -211 17 -281h-195q-14 70 -14 168 q-20 -39 -36.5 -62.5t-50.5 -58.5t-84 -53.5t-114 -18.5q-127 0 -204.5 77t-77.5 214zM289 281q0 -152 135 -152q76 0 137.5 80t61.5 233v52q-33 2 -62 2q-162 0 -217 -61.5t-55 -153.5z" />
<glyph unicode="b" horiz-adv-x="976" d="M121 0v1366h207v-471q27 37 47 59.5t72.5 48t115.5 25.5q100 0 171 -49t105.5 -131t50 -163t15.5 -169q0 -80 -9 -158.5t-58.5 -185t-132.5 -152.5q-76 -41 -173 -40q-59 0 -104 13t-72.5 40.5t-41 48t-29.5 55.5q-25 -57 -45 -137h-119zM328 428q0 -291 178 -291 q98 0 138 92.5t40 290.5q0 174 -37 264t-137 90q-70 0 -117 -55q-66 -78 -65 -203v-188z" />
<glyph unicode="c" horiz-adv-x="837" d="M72 502q0 78 9 146.5t35.5 142t68.5 125t115 85t167 33.5q86 0 151.5 -28.5t99.5 -66.5t58.5 -96.5t31.5 -92t13 -80.5l-200 -21q-12 109 -42 164t-110 55q-102 0 -140 -94t-38 -291q0 -336 178 -336q45 0 75.5 20.5t46 59.5t20.5 67t10 73l200 -19q-6 -53 -13 -88 t-31.5 -95.5t-60.5 -96t-104.5 -64.5t-158.5 -29q-117 0 -197 50.5t-118 135.5t-52 166t-14 175z" />
<glyph unicode="d" horiz-adv-x="976" d="M72 500q0 252 95 390t251 138q72 0 125 -27.5t70.5 -50t35.5 -57.5v473h207v-1366h-192v154q-14 -33 -27.5 -53.5t-42.5 -53.5t-76 -49t-108 -16q-82 0 -144.5 35.5t-98.5 90t-58.5 127t-29.5 136t-7 129.5zM293 518q0 -76 6 -133t22.5 -118.5t54.5 -94.5t93 -33 q86 0 137 80q43 66 43 201v174q0 131 -43 197q-57 84 -139 83q-174 0 -174 -356z" />
<glyph unicode="e" horiz-adv-x="907" d="M74 489q0 268 112.5 406.5t290.5 138.5q113 0 190.5 -52t114.5 -124q33 -63 49.5 -137t19.5 -120t5 -128h-569q0 -41 1 -65.5t6 -71.5t17.5 -77t33 -61.5t55 -48t81.5 -16.5t81 17.5t53.5 52.5t27.5 57.5t16 61.5l189 -27q-10 -39 -17.5 -64.5t-36 -79t-65.5 -87 t-103.5 -61.5t-150.5 -28q-209 0 -305 146.5t-96 367.5zM291 614h354q0 84 -18 144q-23 68 -68 95.5t-88 27.5q-160 -1 -180 -267z" />
<glyph unicode="f" horiz-adv-x="524" d="M20 842v168h134q2 49 3 71.5t4 67.5t11 68.5t21.5 58.5t35 53.5t51 39t71.5 28.5t95 8q57 0 123 -12v-166q-37 8 -77 8q-92 0 -114 -46t-22 -179h183v-168h-183v-842h-202v842h-134z" />
<glyph unicode="g" horiz-adv-x="907" d="M55 -119q0 141 148 195q-33 20 -49.5 32.5t-39 50.5t-22.5 85q0 125 150 200q-37 27 -58.5 47.5t-47 78t-25.5 132.5q0 150 99 241t255 91q92 0 192 -43q8 41 14.5 63.5t26 56.5t55 50.5t91.5 16.5q4 0 65 -7l-2 -153q-27 6 -47 6q-47 0 -72.5 -24.5t-37.5 -86.5 q78 -96 77 -217q0 -131 -91 -227t-259 -96q-66 0 -129 18q-18 -8 -25.5 -12t-22.5 -15.5t-21.5 -26.5t-6.5 -36q0 -53 44 -66.5t212 -21.5q68 -4 99.5 -7t88 -13.5t85 -28t61.5 -45t46.5 -72.5t13.5 -106q0 -94 -44 -161t-118 -97.5t-144.5 -43t-152.5 -12.5 q-68 0 -127.5 8.5t-129 33t-110.5 78.5t-41 134zM244 -86q0 -78 60.5 -109.5t182.5 -31.5q240 0 240 139q0 106 -121 117q-23 2 -274 14q-88 -43 -88 -129zM326 698q0 -195 143 -194q49 0 82 24.5t44 65.5t14 62.5t3 41.5q0 27 -4 52.5t-15 63.5t-42 60.5t-76 22.5 q-149 0 -149 -199z" />
<glyph unicode="h" horiz-adv-x="942" d="M123 0v1366h209v-492q23 45 41 73t71.5 57.5t126.5 29.5q156 0 220 -121q35 -68 34 -276v-637h-209v637q0 57 -2 87t-13 68.5t-37.5 56t-71.5 17.5q-160 0 -160 -288v-578h-209z" />
<glyph unicode="i" horiz-adv-x="454" d="M117 1147v221h219v-221h-219zM123 0v1010h209v-1010h-209z" />
<glyph unicode="j" horiz-adv-x="454" d="M-51 -174q35 -10 74 -10q74 0 89 42t15 183v969h209v-973q0 -80 -2 -121t-15.5 -104.5t-39 -94t-76.5 -55t-127 -24.5q-41 0 -127 14v174zM123 1147v221h217v-221h-217z" />
<glyph unicode="k" horiz-adv-x="872" d="M123 0v1366h209v-807l325 451h207l-262 -348l291 -662h-225l-201 506l-135 -184v-322h-209z" />
<glyph unicode="l" horiz-adv-x="454" d="M123 0v1366h209v-1366h-209z" />
<glyph unicode="m" horiz-adv-x="1429" d="M123 0v1010h192v-154q18 39 31.5 60.5t42.5 54.5t73 48t103 15q66 0 112 -18.5t69.5 -54t31.5 -57t19 -58.5q14 35 26.5 56.5t42 57t77.5 55t110 19.5q154 0 219 -106q43 -70 43 -289v-639h-209v623q0 53 -1 78.5t-7 63.5t-18.5 55.5t-37 31.5t-59.5 14q-160 0 -160 -274 v-592h-209v614q0 115 -3 144.5t-17 54.5q-29 53 -100 53q-47 0 -79 -20.5t-48.5 -46t-24.5 -70.5t-9 -70.5t-1 -70.5v-588h-209z" />
<glyph unicode="n" horiz-adv-x="942" d="M123 0v1010h192v-156q14 35 26.5 54.5t41.5 54t75 53t107 18.5q162 0 226 -125q35 -68 34 -258v-651h-209v639q0 51 -1 75.5t-7 59.5t-18 51.5t-36 28.5t-58 12q-57 0 -94 -29.5t-50.5 -85t-16.5 -92t-3 -94.5v-565h-209z" />
<glyph unicode="o" horiz-adv-x="942" d="M74 506q0 528 399 528q113 0 194 -45t122.5 -123t60 -164t18.5 -186q0 -541 -399 -541q-113 0 -193.5 45.5t-122.5 124t-60.5 167t-18.5 194.5zM295 504q0 -195 43 -283t133 -88t133 87t43 286q0 193 -43 282t-133 89q-94 0 -135 -92.5t-41 -280.5z" />
<glyph unicode="p" horiz-adv-x="976" d="M121 -342v1352h192v-166q16 37 30.5 58.5t44.5 56t74 52t101 17.5q156 0 249 -135t93 -373q0 -309 -139 -454q-80 -84 -211 -84q-63 0 -112.5 22.5t-69 43t-45.5 56.5v-446h-207zM328 422q0 -143 39 -205q51 -78 139 -78q178 0 178 375q0 360 -176 360q-76 0 -125 -69 q-55 -80 -55 -215v-168z" />
<glyph unicode="q" horiz-adv-x="976" d="M72 487q0 381 198 498q74 43 160 43q55 0 100 -16.5t74 -47t43.5 -51t30.5 -53.5q37 74 65 158h113q-4 -88 -4 -236v-1124h-209v471q-27 -41 -45 -64.5t-71.5 -53t-120.5 -29.5q-154 0 -244 134.5t-90 370.5zM293 508q0 -369 172 -369q66 0 122 74t56 250v131 q0 143 -54 211.5t-122 68.5q-98 0 -136 -95t-38 -271z" />
<glyph unicode="r" horiz-adv-x="559" d="M123 0v1010h184v-226q82 248 252 248q16 0 37 -4v-217q-21 2 -40 2q-52 0 -92 -16q-54 -23 -82 -69t-39 -98t-11 -116v-514h-209z" />
<glyph unicode="s" horiz-adv-x="802" d="M33 268l178 35q31 -174 195 -174q90 0 123.5 44t33.5 89q0 35 -14 60.5t-45 44t-53.5 26.5t-65.5 23q-74 25 -111.5 40t-95 51t-84 89t-26.5 127q0 127 91 219t244 92q256 0 328 -260l-164 -45q-49 152 -170 152q-61 0 -96 -37t-35 -88q0 -45 25.5 -74t59.5 -43t118 -41 q63 -20 101 -36.5t91.5 -51.5t80 -89t26.5 -126q0 -129 -96.5 -224.5t-274.5 -95.5q-88 0 -155.5 25t-103.5 55.5t-60.5 79.5t-31.5 72.5t-13 60.5z" />
<glyph unicode="t" horiz-adv-x="559" d="M-2 842v168h137l10 264l189 16v-280h192v-168h-192v-447q0 -66 1 -94.5t7 -65t21.5 -50t42 -23.5t67.5 -10q12 0 86 6v-164q-92 -18 -156 -19q-57 0 -101 12.5t-72.5 29t-49 50t-30 60.5t-14.5 78t-6 82.5t-1 93.5v461h-131z" />
<glyph unicode="u" horiz-adv-x="942" d="M117 365v645h209v-641q0 -53 1 -79t6 -60.5t17 -49t35 -26t57 -11.5q49 0 82 23.5t50.5 54.5t25.5 91.5t9 98.5t1 113v486h209v-1010h-192v152q-27 -53 -46.5 -82t-75.5 -62t-134 -33q-61 0 -106.5 15.5t-72 49.5t-43 65.5t-23.5 85t-8 85.5t-1 89z" />
<glyph unicode="v" horiz-adv-x="733" d="M-10 1010h203l190 -725l184 725h181l-285 -1010h-184z" />
<glyph unicode="w" horiz-adv-x="1150" d="M-2 1010h207l147 -695l146 695h184l143 -699l160 699h170l-252 -1010h-176l-154 700l-145 -700h-176z" />
<glyph unicode="x" horiz-adv-x="733" d="M-35 0l293 524l-260 486h231l148 -293l153 293h195l-256 -457l299 -553h-233l-183 356l-190 -356h-197z" />
<glyph unicode="y" horiz-adv-x="733" d="M0 1010h209l176 -693l180 693h189l-328 -1073q-18 -61 -30.5 -93t-37 -79.5t-51 -70t-72 -39.5t-102.5 -17q-43 0 -108 12v168q37 -6 73 -6q84 0 117 41t72 180z" />
<glyph unicode="z" horiz-adv-x="698" d="M31 0v158l409 694h-374v158h614v-127l-426 -725h430v-158h-653z" />
<glyph unicode="{" horiz-adv-x="663" d="M88 453v143q76 0 92.5 43t16.5 186v222q0 197 68.5 262t246.5 55v-119q-84 -2 -103.5 -36.5t-19.5 -161.5v-218q0 -170 -19.5 -223t-105.5 -82q84 -31 104.5 -84t20.5 -223v-240q0 -129 19.5 -164.5t103.5 -35.5v-119q-172 -8 -243.5 54.5t-71.5 264.5v244q0 66 -1 93.5 t-6.5 62.5t-16.5 46t-31.5 20.5t-53.5 9.5z" />
<glyph unicode="|" horiz-adv-x="1024" d="M408 -512v2048h208v-2048h-208z" />
<glyph unicode="}" horiz-adv-x="663" d="M152 -223q82 0 102 36.5t20 163.5v240q0 170 19.5 223.5t105.5 83.5q-86 31 -105.5 84.5t-19.5 220.5v218q0 127 -19 162.5t-103 37.5v119q170 8 242.5 -53.5t72.5 -265.5v-222q0 -66 1 -92t6 -61t16.5 -46.5t32 -20.5t52.5 -9v-143q-76 0 -92 -43t-16 -189v-244 q0 -199 -69.5 -263t-245.5 -56v119z" />
<glyph unicode="~" d="M29 592q29 61 47 95t54 79t84 65.5t110 20.5q72 0 221 -61q133 -57 186 -58q43 0 77 20.5t50 41t39 59.5l121 -70q-25 -51 -43.5 -80.5t-56 -76.5t-92 -71t-121.5 -24q-59 0 -291 95q-66 25 -107 24q-94 0 -162 -137z" />
<glyph unicode="&#xa1;" horiz-adv-x="698" d="M211 -356l70 997h137l69 -997h-276zM236 758v252h227v-252h-227z" />
<glyph unicode="&#xa2;" d="M162 682q0 309 162 436q57 45 155 62v186h119v-186q119 -18 190.5 -97t96.5 -239l-176 -23q-12 92 -38 134t-79 71v-651q55 27 78.5 66.5t38.5 133.5l176 -22q-6 -43 -12.5 -69.5t-26 -78t-47 -84t-79.5 -64.5t-122 -44v-223h-119v223q-92 14 -149.5 57t-95 107.5 t-51 133.5t-17.5 103.5t-4 67.5zM362 698q0 -86 12.5 -148.5t35 -96t37 -47t36.5 -27.5v639q-51 -27 -73 -68q-48 -86 -48 -252z" />
<glyph unicode="&#xa3;" d="M41 0v180h70q137 0 202 92q53 72 54 201q0 59 -15 164h-196v162h170q-23 139 -23 217q0 63 17.5 123.5t55.5 120t113.5 95.5t180.5 36q66 0 120 -17.5t84.5 -38t59.5 -57.5t38 -55.5t23 -48.5l-161 -101q-53 145 -166 146q-147 0 -148 -203q0 -49 6 -90q16 -113 19 -127 h260v-162h-240q8 -57 8 -105q0 -102 -31.5 -181t-60 -107.5t-75.5 -65.5h153q150 0 223.5 35t124.5 147l162 -84q-29 -76 -63.5 -126t-73.5 -80.5t-99.5 -46t-119 -19.5t-154.5 -4h-518z" />
<glyph unicode="&#xa4;" d="M90 1018l119 119l141 -142q82 47 172 47q84 0 176 -49l142 142l114 -115l-141 -143q49 -76 49 -172q0 -88 -47 -173l141 -143l-118 -117l-142 142q-84 -49 -174 -49q-88 0 -172 49l-141 -142l-115 115l139 141q-49 92 -49 174q0 94 49 175zM348 702.5q0 -71.5 51.5 -123 t122.5 -51.5q74 0 125 51.5t51 125.5q0 72 -51 123t-125 51q-72 0 -123 -52.5t-51 -124z" />
<glyph unicode="&#xa5;" d="M57 1366h230l252 -612l260 612h192l-252 -545h228v-125h-285l-59 -141h344v-125h-344v-430h-203v430h-322v125h320l-62 141h-258v125h203z" />
<glyph unicode="&#xa6;" horiz-adv-x="1024" d="M408 -358v716h208v-716h-208zM408 666v716h208v-716h-208z" />
<glyph unicode="&#xa7;" d="M121 -43l184 33q6 -31 15.5 -53.5t32 -57.5t67.5 -54.5t106 -19.5q100 0 150.5 48.5t50.5 126.5q0 88 -54.5 129t-203.5 98q-57 23 -90 36t-82 41.5t-74.5 59.5t-45 79t-19.5 107q0 172 164 287q-35 29 -54.5 49.5t-44 77.5t-24.5 127q0 137 93 228.5t255 91.5 q174 0 274 -95q59 -57 92 -172l-174 -41q-8 31 -17 51.5t-29.5 49t-57.5 44t-86 15.5q-88 0 -122 -49t-34 -100q0 -78 47 -115t183 -92q70 -29 106.5 -47.5t86.5 -56.5t73.5 -92t23.5 -126q0 -70 -26.5 -129t-51 -83.5t-67.5 -63.5q31 -20 50.5 -38t48 -51.5t44 -82.5 t15.5 -111q0 -158 -109.5 -258t-294.5 -100q-333 0 -401 309zM340 582q0 -94 113 -154q14 -8 99 -42t87 -34q96 74 96 164q0 84 -78 133q-35 20 -219 103q-98 -78 -98 -170z" />
<glyph unicode="&#xa8;" horiz-adv-x="1024" d="M244 1266q0 45 32.5 74.5t75.5 29.5t76 -29.5t33 -74.5q0 -47 -35 -75t-74 -28t-73.5 28t-34.5 75zM563 1266q0 45 33 74.5t76 29.5t75.5 -29.5t32.5 -74.5q0 -47 -34.5 -75t-73.5 -28t-74 29t-35 74z" />
<glyph unicode="&#xa9;" horiz-adv-x="1599" d="M86 682q0 293 209 501t504 208q297 0 505.5 -208t208.5 -501t-208.5 -500t-505.5 -207q-295 0 -504 207t-209 500zM236 682q0 -238 164.5 -404.5t398 -166.5t399.5 167.5t166 403.5q0 238 -166 405.5t-399.5 167.5t-398 -167.5t-164.5 -405.5zM483 678q0 78 14.5 146.5 t48.5 135t102.5 106.5t166.5 40q260 0 299 -293l-162 -20q-6 55 -14 85.5t-39 63.5t-82 33q-154 0 -153 -299q0 -287 155 -287q57 0 87 40t48 134l160 -18q-23 -152 -102 -221q-78 -66 -199 -66q-102 0 -174 44t-102.5 115.5t-42 133t-11.5 127.5z" />
<glyph unicode="&#xaa;" d="M217 879q0 250 389 243q0 43 -2 65.5t-24.5 48.5t-65.5 26q-29 0 -48.5 -8.5t-29.5 -28t-13 -26.5t-9 -28l-172 19q8 35 16 56.5t37 54t74 55.5q66 35 157 35q90 0 146.5 -26t78 -77t26.5 -86t5 -96v-221q0 -145 19 -197h-150q-8 66 -10 107q-25 -35 -41 -53.5t-63.5 -44 t-106.5 -25.5q-90 0 -151.5 52.5t-61.5 154.5zM401 887q0 -86 80 -86q125 0 125 207q-25 0 -69.5 3t-90 -29t-45.5 -95z" />
<glyph unicode="&#xab;" horiz-adv-x="802" d="M90 524l193 320h116l-108 -320l108 -319h-116zM403 524l193 328h117l-109 -328l109 -325h-117z" />
<glyph unicode="&#xac;" d="M104 739v166h838v-446h-174v280h-664z" />
<glyph unicode="&#xad;" horiz-adv-x="593" d="M80 428v168h432v-168h-432z" />
<glyph unicode="&#xae;" d="M115 954q0 172 119.5 292t289.5 120q168 0 288 -120t120 -292q0 -170 -121 -288.5t-287 -118.5q-168 0 -288.5 118.5t-120.5 288.5zM213 954q0 -131 92 -223t219 -92t218.5 92t91.5 223q0 133 -91.5 226.5t-218.5 93.5q-129 0 -220 -93.5t-91 -226.5zM377 737v451h153 q168 0 168 -129q0 -88 -77 -115l90 -207h-107l-69 185h-60v-185h-98zM475 987h53q70 0 70 72q0 63 -70 63h-53v-135z" />
<glyph unicode="&#xaf;" horiz-adv-x="1024" d="M236 1200v131h552v-131h-552z" />
<glyph unicode="&#x2c9;" horiz-adv-x="1024" d="M236 1200v131h552v-131h-552z" />
<glyph unicode="&#xb0;" d="M205 1071q0 135 93 227.5t226 92.5q131 0 224.5 -93.5t93.5 -226.5t-93.5 -226t-224.5 -93q-133 0 -226 93t-93 226zM365 1071q0 -78 47 -131t112.5 -53t111.5 53t46 131q0 76 -46 130t-111.5 54t-112.5 -54t-47 -130z" />
<glyph unicode="&#xb1;" d="M104 10v166h838v-166h-838zM104 600v166h332v336h174v-336h332v-166h-332v-326h-174v326h-332z" />
<glyph unicode="&#xb2;" horiz-adv-x="698" d="M45 1112q53 268 293 268q133 0 202.5 -72.5t69.5 -172.5q0 -139 -149 -279q-84 -84 -213 -166h368l-8 -143h-559v133q252 209 328 305q55 68 55 141q0 49 -25.5 84t-78.5 35q-104 0 -125 -164z" />
<glyph unicode="&#xb3;" horiz-adv-x="698" d="M29 768l151 33q6 -27 11.5 -42.5t20.5 -42t43 -39.5t67 -13q47 0 83.5 28.5t36.5 95.5q0 53 -27.5 82t-56 35t-71.5 6h-68v119h68q39 0 61.5 3t50 30t27.5 78q0 113 -102 112q-33 0 -55.5 -11t-36 -31.5t-19.5 -37t-12 -40.5l-150 32q61 215 287 215q121 0 190.5 -61.5 t69.5 -161.5q0 -53 -25.5 -94t-46 -54.5t-53.5 -29.5q150 -53 150 -199q0 -113 -81 -180.5t-214 -67.5q-72 0 -127.5 20.5t-84 44.5t-50 63.5t-26.5 59t-11 48.5z" />
<glyph unicode="&#xb4;" horiz-adv-x="1024" d="M414 1208l319 281l109 -137l-353 -222z" />
<glyph unicode="&#xb5;" horiz-adv-x="942" d="M117 -342v1352h209v-486q0 -240 26 -299q35 -82 115 -82q84 0 119 82q25 63 24 299v486h209v-1010h-192v152q-12 -51 -22.5 -80t-46.5 -63t-91 -34q-41 0 -70.5 16.5t-47 48.5t-25 54.5t-15.5 57.5v-494h-192z" />
<glyph unicode="&#x3bc;" horiz-adv-x="942" d="M117 -342v1352h209v-486q0 -240 26 -299q35 -82 115 -82q84 0 119 82q25 63 24 299v486h209v-1010h-192v152q-12 -51 -22.5 -80t-46.5 -63t-91 -34q-41 0 -70.5 16.5t-47 48.5t-25 54.5t-15.5 57.5v-494h-192z" />
<glyph unicode="&#xb6;" horiz-adv-x="1081" d="M49 971q0 233 148 338q84 57 280 57h447v-1708h-138v1571h-102v-1571h-137v915h-76q-68 0 -103.5 2.5t-92 19.5t-99.5 50q-127 103 -127 326z" />
<glyph unicode="&#xb7;" horiz-adv-x="489" d="M131 397v258h227v-258h-227z" />
<glyph unicode="&#x2219;" horiz-adv-x="489" d="M131 397v258h227v-258h-227z" />
<glyph unicode="&#xb8;" horiz-adv-x="1024" d="M346 -346l29 74q84 -37 149 -37q82 0 82 61q0 31 -17.5 48.5t-44 22.5t-59 7t-63.5 0l59 168l99 2l-33 -96q63 4 104 -10q96 -33 97 -136q0 -70 -55.5 -118t-149.5 -48q-84 1 -197 62z" />
<glyph unicode="&#xb9;" horiz-adv-x="698" d="M154 1067v152q115 61 194 155h125v-702h139v-125h-454v125h149v495q-69 -59 -153 -100z" />
<glyph unicode="&#xba;" d="M236 1030q0 360 288 361q156 0 221.5 -101.5t65.5 -251.5q0 -367 -289 -366q-286 0 -286 358zM408 1030q0 -246 114 -246q117 0 117 246q0 248 -115 248q-116 0 -116 -248z" />
<glyph unicode="&#xbb;" horiz-adv-x="802" d="M90 199l107 325l-107 328h117l192 -328l-192 -325h-117zM403 199l109 325l-109 328h117l193 -328l-193 -325h-117z" />
<glyph unicode="&#xbc;" horiz-adv-x="1570" d="M137 1067v152q115 61 195 155h125v-702h139v-125h-455v125h150v495q-70 -59 -154 -100zM379 0l665 1366h146l-666 -1366h-145zM879 190v113l317 531h186v-517h107v-127h-107v-190h-168v190h-335zM1016 307h209v377z" />
<glyph unicode="&#xbd;" horiz-adv-x="1570" d="M113 1067v152q115 61 194 155h125v-702h139v-125h-454v125h149v495q-69 -59 -153 -100zM352 0l666 1366h147l-667 -1366h-146zM879 565q6 35 12 57.5t27.5 66.5t50 71.5t82 50.5t120.5 23q135 0 204 -74t69 -172q0 -141 -150 -279q-84 -84 -213 -166h369l-8 -143h-561 v133q246 197 329 305q55 72 56 142q0 45 -23.5 81.5t-81.5 36.5q-104 0 -125 -161z" />
<glyph unicode="&#xbe;" horiz-adv-x="1570" d="M61 768l152 33q6 -27 11 -42.5t20.5 -42t43 -39.5t66.5 -13q47 0 84 28.5t37 95.5q0 53 -27.5 82t-56.5 35t-72 6h-65v119h68q39 0 61.5 3t50 30t27.5 78q0 113 -103 112q-41 0 -69.5 -22.5t-36.5 -43t-19 -54.5l-147 32q61 215 287 215q121 0 190.5 -61.5t69.5 -161.5 q0 -55 -25.5 -95t-47 -53.5t-54.5 -29.5q150 -53 149 -199q0 -113 -80.5 -180.5t-214.5 -67.5q-72 0 -127 20.5t-83.5 44.5t-50 63.5t-27 59t-11.5 48.5zM418 0l667 1366h146l-668 -1366h-145zM891 190v113l317 531h187v-517h106v-127h-106v-190h-168v190h-336zM1028 307 h209v377z" />
<glyph unicode="&#xbf;" horiz-adv-x="1011" d="M127 -8q0 90 34 164.5t70.5 113.5t100.5 92q94 76 114.5 121t16.5 162h188q-2 -160 -18.5 -227.5t-83.5 -124.5q-117 -98 -156 -153.5t-39 -152t49.5 -143.5t126.5 -47q193 0 209 283l195 -37q-18 -219 -129 -321.5t-285 -102.5q-193 0 -293 106.5t-100 266.5zM444 764 v246h224v-246h-224z" />
<glyph unicode="&#xc0;" horiz-adv-x="1011" d="M-8 0l395 1366h254l365 -1366h-230l-86 342h-397l-84 -342h-217zM145 1614l72 166l393 -195l-55 -98zM336 520h309l-153 627z" />
<glyph unicode="&#xc1;" horiz-adv-x="1011" d="M-8 0l395 1366h254l365 -1366h-230l-86 342h-397l-84 -342h-217zM336 520h309l-153 627zM356 1585l394 195l71 -166l-409 -127z" />
<glyph unicode="&#xc2;" horiz-adv-x="1011" d="M-8 0l395 1366h254l365 -1366h-230l-86 342h-397l-84 -342h-217zM143 1501l369 260l369 -260l-185 -14l-184 102l-184 -102zM336 520h309l-153 627z" />
<glyph unicode="&#xc3;" horiz-adv-x="1011" d="M-8 0l395 1366h254l365 -1366h-230l-86 342h-397l-84 -342h-217zM162 1563q98 150 217 149q33 0 56.5 -8t113.5 -45q53 -23 84 -23q51 0 96 72l92 -59q-96 -152 -219 -152q-51 0 -137 41q-74 35 -111 35q-51 0 -102 -70zM336 520h309l-153 627z" />
<glyph unicode="&#xc4;" horiz-adv-x="1011" d="M-8 0l395 1366h254l365 -1366h-230l-86 342h-397l-84 -342h-217zM236 1606q0 47 34.5 77.5t77.5 30.5q47 0 80 -30.5t33 -75.5q0 -47 -35 -77t-78 -30q-41 0 -76.5 29t-35.5 76zM336 520h309l-153 627zM563 1608q0 45 34 75.5t79 30.5t78.5 -30.5t33.5 -77.5t-35.5 -76 t-76.5 -29t-77 29t-36 78z" />
<glyph unicode="&#xc5;" horiz-adv-x="1011" d="M-8 0l395 1366h254l365 -1366h-230l-86 342h-397l-84 -342h-217zM319 1645q0 84 57.5 139t135.5 55t135.5 -55t57.5 -141.5t-61.5 -138.5t-131.5 -52t-131.5 51.5t-61.5 141.5zM336 520h309l-153 627zM424 1645q0 -41 27.5 -66t60.5 -25t60.5 25t27.5 66t-27.5 66.5 t-60.5 25.5t-60.5 -25.5t-27.5 -66.5z" />
<glyph unicode="&#xc6;" horiz-adv-x="1429" d="M-82 0l621 1366h870v-180h-549v-393h430v-181h-430v-428h551v-184h-770v373h-356l-162 -373h-205zM356 549h287v670z" />
<glyph unicode="&#xc7;" horiz-adv-x="1081" d="M86 678q0 82 7 158.5t38 183t80 183.5t145.5 132.5t225.5 55.5q387 0 444 -467l-209 -29q-6 49 -11 77.5t-22.5 79t-39 79t-62.5 51t-94 22.5q-262 0 -262 -532q0 -510 262 -510q100 0 151.5 70.5t77.5 226.5l209 -29q-39 -240 -149 -346q-106 -100 -285 -109l-25 -79 q66 4 107 -11q102 -35 102 -139q0 -70 -55 -121t-156 -51q-94 0 -203 66l29 75q94 -37 154 -37q80 0 80 62q0 55 -66 72q-31 6 -119 6l54 164q-164 39 -240 127q-168 192 -168 569z" />
<glyph unicode="&#xc8;" horiz-adv-x="942" d="M131 0v1366h780v-180h-555v-393h437v-181h-437v-428h566v-184h-791zM186 1614l72 166l393 -195l-55 -98z" />
<glyph unicode="&#xc9;" horiz-adv-x="942" d="M131 0v1366h780v-180h-555v-393h437v-181h-437v-428h566v-184h-791zM387 1585l393 195l72 -166l-410 -127z" />
<glyph unicode="&#xca;" horiz-adv-x="942" d="M113 1501l368 260l369 -260l-184 -14l-185 102l-184 -102zM131 0v1366h780v-180h-555v-393h437v-181h-437v-428h566v-184h-791z" />
<glyph unicode="&#xcb;" horiz-adv-x="942" d="M131 0v1366h780v-180h-555v-393h437v-181h-437v-428h566v-184h-791zM236 1606q0 47 34.5 77.5t77.5 30.5q47 0 80 -30.5t33 -75.5q0 -47 -35 -77t-78 -30q-41 0 -76.5 29t-35.5 76zM563 1608q0 45 34 75.5t79 30.5t78.5 -30.5t33.5 -77.5t-35.5 -76t-76.5 -29t-77 29 t-36 78z" />
<glyph unicode="&#xcc;" horiz-adv-x="489" d="M-100 1614l71 166l394 -195l-56 -98zM131 0v1366h225v-1366h-225z" />
<glyph unicode="&#xcd;" horiz-adv-x="489" d="M131 0v1366h225v-1366h-225zM141 1585l394 195l71 -166l-409 -127z" />
<glyph unicode="&#xce;" horiz-adv-x="489" d="M-133 1501l369 260l368 -260l-184 -14l-184 102l-185 -102zM131 0v1366h225v-1366h-225z" />
<glyph unicode="&#xcf;" horiz-adv-x="489" d="M-31 1606q0 47 35 77.5t78 30.5q47 0 80 -30.5t33 -75.5q0 -47 -35 -77t-78 -30q-41 0 -77 29t-36 76zM131 0v1366h225v-1366h-225zM297 1608q0 45 34 75.5t79 30.5t78.5 -30.5t33.5 -77.5t-35.5 -76t-76.5 -29t-77 29t-36 78z" />
<glyph unicode="&#xd0;" horiz-adv-x="1150" d="M14 612v181h117v573h307q319 0 465 -168q162 -186 162 -504q0 -209 -69.5 -366.5t-188.5 -239.5q-125 -88 -352 -88h-324v612h-117zM356 180h95q158 0 239 82q135 131 135 420q0 504 -374 504h-95v-393h252v-181h-252v-432z" />
<glyph unicode="&#xd1;" horiz-adv-x="1150" d="M123 0v1366h266l451 -985v985h188v-1366h-211l-506 1094v-1094h-188zM264 1563q98 150 217 149q33 0 56.5 -8t113.5 -45q53 -23 84 -23q51 0 96 72l93 -59q-96 -152 -219 -152q-51 0 -138 41q-74 35 -110 35q-51 0 -103 -70z" />
<glyph unicode="&#xd2;" horiz-adv-x="1150" d="M86 682q0 133 20.5 245.5t70.5 223.5t152.5 175.5t248 64.5t247 -63.5t151.5 -174.5t70.5 -223.5t20.5 -247.5q0 -96 -9 -182t-41 -186.5t-82 -171t-142.5 -119t-212.5 -48.5q-119 0 -209 44t-142.5 113t-86 165t-45 188.5t-11.5 196.5zM227 1614l72 166l393 -195 l-55 -98zM324 682q0 -250 55 -381q31 -70 77 -104.5t124 -34.5q133 0 194 139q55 131 55 381q0 254 -55 383q-63 139 -196 139q-137 0 -199 -139q-55 -127 -55 -383z" />
<glyph unicode="&#xd3;" horiz-adv-x="1150" d="M86 682q0 133 20.5 245.5t70.5 223.5t152.5 175.5t248 64.5t247 -63.5t151.5 -174.5t70.5 -223.5t20.5 -247.5q0 -96 -9 -182t-41 -186.5t-82 -171t-142.5 -119t-212.5 -48.5q-119 0 -209 44t-142.5 113t-86 165t-45 188.5t-11.5 196.5zM324 682q0 -250 55 -381 q31 -70 77 -104.5t124 -34.5q133 0 194 139q55 131 55 381q0 254 -55 383q-63 139 -196 139q-137 0 -199 -139q-55 -127 -55 -383zM469 1585l393 195l72 -166l-410 -127z" />
<glyph unicode="&#xd4;" horiz-adv-x="1150" d="M86 682q0 133 20.5 245.5t70.5 223.5t152.5 175.5t248 64.5t247 -63.5t151.5 -174.5t70.5 -223.5t20.5 -247.5q0 -96 -9 -182t-41 -186.5t-82 -171t-142.5 -119t-212.5 -48.5q-119 0 -209 44t-142.5 113t-86 165t-45 188.5t-11.5 196.5zM205 1501l368 260l369 -260 l-184 -14l-185 102l-184 -102zM324 682q0 -250 55 -381q31 -70 77 -104.5t124 -34.5q133 0 194 139q55 131 55 381q0 254 -55 383q-63 139 -196 139q-137 0 -199 -139q-55 -127 -55 -383z" />
<glyph unicode="&#xd5;" horiz-adv-x="1150" d="M86 682q0 133 20.5 245.5t70.5 223.5t152.5 175.5t248 64.5t247 -63.5t151.5 -174.5t70.5 -223.5t20.5 -247.5q0 -96 -9 -182t-41 -186.5t-82 -171t-142.5 -119t-212.5 -48.5q-119 0 -209 44t-142.5 113t-86 165t-45 188.5t-11.5 196.5zM244 1563q98 150 217 149 q33 0 56.5 -8t113.5 -45q53 -23 84 -23q51 0 96 72l92 -59q-96 -152 -219 -152q-51 0 -137 41q-74 35 -111 35q-51 0 -102 -70zM324 682q0 -250 55 -381q31 -70 77 -104.5t124 -34.5q133 0 194 139q55 131 55 381q0 254 -55 383q-63 139 -196 139q-137 0 -199 -139 q-55 -127 -55 -383z" />
<glyph unicode="&#xd6;" horiz-adv-x="1150" d="M86 682q0 133 20.5 245.5t70.5 223.5t152.5 175.5t248 64.5t247 -63.5t151.5 -174.5t70.5 -223.5t20.5 -247.5q0 -96 -9 -182t-41 -186.5t-82 -171t-142.5 -119t-212.5 -48.5q-119 0 -209 44t-142.5 113t-86 165t-45 188.5t-11.5 196.5zM297 1606q0 47 35 77.5t78 30.5 q47 0 79.5 -30.5t32.5 -75.5q0 -47 -34.5 -77t-77.5 -30q-41 0 -77 29t-36 76zM324 682q0 -250 55 -381q31 -70 77 -104.5t124 -34.5q133 0 194 139q55 131 55 381q0 254 -55 383q-63 139 -196 139q-137 0 -199 -139q-55 -127 -55 -383zM625 1608q0 45 33.5 75.5t78.5 30.5 t79 -30.5t34 -77.5t-36 -76t-77 -29t-76.5 29t-35.5 78z" />
<glyph unicode="&#xd7;" d="M152 434l247 248l-247 250l122 123l248 -248l250 248l123 -123l-248 -250l248 -248l-123 -123l-250 248l-248 -248z" />
<glyph unicode="&#xd8;" horiz-adv-x="1150" d="M90 688q0 94 10.5 180t42 184.5t81.5 170t141.5 120t209.5 48.5q139 0 256 -72l58 123h143l-108 -215q137 -186 137 -545q0 -111 -12.5 -206t-46 -189t-87 -162t-140.5 -109t-200 -41q-143 0 -243 68l-62 -125h-143l106 215q-143 170 -143 555zM309 678q0 -225 39 -346 l387 831q-61 51 -157 51q-147 0 -211 -141q-58 -131 -58 -395zM426 195q55 -43 147 -43q184 0 238 219q31 147 31 311q0 223 -35 336z" />
<glyph unicode="&#xd9;" horiz-adv-x="1116" d="M121 518v848h221v-848q0 -72 2 -108.5t13.5 -93t34 -84t67.5 -49t110.5 -21.5t109.5 20.5t65.5 47t32.5 83t13.5 94t2.5 115.5v844h202v-834q0 -125 -6 -193.5t-37.5 -149t-97.5 -130.5q-115 -84 -297 -84q-90 0 -159.5 18.5t-114.5 45.5t-78 75t-48.5 88t-24.5 104.5 t-10 104t-1 107.5zM186 1614l72 166l393 -195l-55 -98z" />
<glyph unicode="&#xda;" horiz-adv-x="1116" d="M121 518v848h221v-848q0 -72 2 -108.5t13.5 -93t34 -84t67.5 -49t110.5 -21.5t109.5 20.5t65.5 47t32.5 83t13.5 94t2.5 115.5v844h202v-834q0 -125 -6 -193.5t-37.5 -149t-97.5 -130.5q-115 -84 -297 -84q-90 0 -159.5 18.5t-114.5 45.5t-78 75t-48.5 88t-24.5 104.5 t-10 104t-1 107.5zM469 1585l393 195l72 -166l-410 -127z" />
<glyph unicode="&#xdb;" horiz-adv-x="1116" d="M121 518v848h221v-848q0 -72 2 -108.5t13.5 -93t34 -84t67.5 -49t110.5 -21.5t109.5 20.5t65.5 47t32.5 83t13.5 94t2.5 115.5v844h202v-834q0 -125 -6 -193.5t-37.5 -149t-97.5 -130.5q-115 -84 -297 -84q-90 0 -159.5 18.5t-114.5 45.5t-78 75t-48.5 88t-24.5 104.5 t-10 104t-1 107.5zM195 1501l368 260l369 -260l-184 -14l-185 102l-184 -102z" />
<glyph unicode="&#xdc;" horiz-adv-x="1116" d="M121 518v848h221v-848q0 -72 2 -108.5t13.5 -93t34 -84t67.5 -49t110.5 -21.5t109.5 20.5t65.5 47t32.5 83t13.5 94t2.5 115.5v844h202v-834q0 -125 -6 -193.5t-37.5 -149t-97.5 -130.5q-115 -84 -297 -84q-90 0 -159.5 18.5t-114.5 45.5t-78 75t-48.5 88t-24.5 104.5 t-10 104t-1 107.5zM297 1606q0 47 35 77.5t78 30.5q47 0 79.5 -30.5t32.5 -75.5q0 -47 -34.5 -77t-77.5 -30q-41 0 -77 29t-36 76zM625 1608q0 45 33.5 75.5t78.5 30.5t79 -30.5t34 -77.5t-36 -76t-77 -29t-76.5 29t-35.5 78z" />
<glyph unicode="&#xdd;" horiz-adv-x="837" d="M-63 1366h245l250 -569l254 569h217l-379 -788v-578h-225v578zM346 1585l393 195l72 -166l-410 -127z" />
<glyph unicode="&#xde;" horiz-adv-x="1011" d="M131 0v1366h225v-213h113q141 0 233.5 -21.5t157.5 -91.5q111 -117 111 -305q0 -92 -36 -188t-120 -154q-102 -72 -342 -71h-117v-322h-225zM356 502h113q43 0 68.5 2t67.5 14t66.5 36t43 72t18.5 115q0 98 -47 166q-35 49 -81 60.5t-136 11.5h-113v-477z" />
<glyph unicode="&#xdf;" d="M16 750v168h119q0 74 2 114.5t21.5 113.5t58.5 128q113 160 340 160q154 0 245 -84t91 -207q0 -233 -328 -312q14 -27 38 -44t104 -54q66 -31 106.5 -55.5t94 -69.5t80 -110.5t26.5 -147.5q0 -158 -96.5 -266.5t-272.5 -108.5q-88 0 -199 37l52 154q82 -33 151 -33 q78 0 123 51.5t45 134.5q0 45 -12 80t-44 64t-58.5 45t-81.5 47q-104 59 -153.5 113.5t-49.5 130.5q0 51 26 123q248 49 248 198q0 72 -45 117t-119 45q-98 0 -147 -88q-37 -63 -37 -272v-1016h-209v844h-119z" />
<glyph unicode="&#xe0;" horiz-adv-x="942" d="M72 266q0 119 57 201t152 115q139 47 342 41v41q0 41 -3.5 67.5t-15.5 66.5t-45 61.5t-86 21.5q-133 0 -164 -158l-200 27q16 90 63 152.5t111.5 88t111.5 34.5t94 9q186 0 279 -108q29 -33 44 -90.5t17 -98.5t2 -114v-342q0 -211 17 -281h-195q-14 70 -14 168 q-20 -39 -36.5 -62.5t-50.5 -58.5t-84 -53.5t-114 -18.5q-127 0 -204.5 77t-77.5 214zM197 1352l108 137l320 -281l-76 -78zM289 281q0 -152 135 -152q76 0 137.5 80t61.5 233v52q-33 2 -62 2q-162 0 -217 -61.5t-55 -153.5z" />
<glyph unicode="&#xe1;" horiz-adv-x="942" d="M72 266q0 119 57 201t152 115q139 47 342 41v41q0 41 -3.5 67.5t-15.5 66.5t-45 61.5t-86 21.5q-133 0 -164 -158l-200 27q16 90 63 152.5t111.5 88t111.5 34.5t94 9q186 0 279 -108q29 -33 44 -90.5t17 -98.5t2 -114v-342q0 -211 17 -281h-195q-14 70 -14 168 q-20 -39 -36.5 -62.5t-50.5 -58.5t-84 -53.5t-114 -18.5q-127 0 -204.5 77t-77.5 214zM289 281q0 -152 135 -152q76 0 137.5 80t61.5 233v52q-33 2 -62 2q-162 0 -217 -61.5t-55 -153.5zM373 1208l319 281l109 -137l-352 -222z" />
<glyph unicode="&#xe2;" horiz-adv-x="942" d="M72 266q0 119 57 201t152 115q139 47 342 41v41q0 41 -3.5 67.5t-15.5 66.5t-45 61.5t-86 21.5q-133 0 -164 -158l-200 27q16 90 63 152.5t111.5 88t111.5 34.5t94 9q186 0 279 -108q29 -33 44 -90.5t17 -98.5t2 -114v-342q0 -211 17 -281h-195q-14 70 -14 168 q-20 -39 -36.5 -62.5t-50.5 -58.5t-84 -53.5t-114 -18.5q-127 0 -204.5 77t-77.5 214zM115 1153l356 274l356 -274l-176 -14l-180 121l-180 -121zM289 281q0 -152 135 -152q76 0 137.5 80t61.5 233v52q-33 2 -62 2q-162 0 -217 -61.5t-55 -153.5z" />
<glyph unicode="&#xe3;" horiz-adv-x="942" d="M72 266q0 119 57 201t152 115q139 47 342 41v41q0 41 -3.5 67.5t-15.5 66.5t-45 61.5t-86 21.5q-133 0 -164 -158l-200 27q16 90 63 152.5t111.5 88t111.5 34.5t94 9q186 0 279 -108q29 -33 44 -90.5t17 -98.5t2 -114v-342q0 -211 17 -281h-195q-14 70 -14 168 q-20 -39 -36.5 -62.5t-50.5 -58.5t-84 -53.5t-114 -18.5q-127 0 -204.5 77t-77.5 214zM162 1229q92 152 203 151q47 0 129 -43q74 -43 110 -43q47 0 90 76l86 -57q-94 -154 -205 -154q-51 0 -129 45q-72 41 -102 41q-20 0 -39.5 -12t-30 -23.5t-28.5 -38.5zM289 281 q0 -152 135 -152q76 0 137.5 80t61.5 233v52q-33 2 -62 2q-162 0 -217 -61.5t-55 -153.5z" />
<glyph unicode="&#xe4;" horiz-adv-x="942" d="M72 266q0 119 57 201t152 115q139 47 342 41v41q0 41 -3.5 67.5t-15.5 66.5t-45 61.5t-86 21.5q-133 0 -164 -158l-200 27q16 90 63 152.5t111.5 88t111.5 34.5t94 9q186 0 279 -108q29 -33 44 -90.5t17 -98.5t2 -114v-342q0 -211 17 -281h-195q-14 70 -14 168 q-20 -39 -36.5 -62.5t-50.5 -58.5t-84 -53.5t-114 -18.5q-127 0 -204.5 77t-77.5 214zM203 1266q0 45 32.5 74.5t75.5 29.5t76 -29.5t33 -74.5q0 -47 -35 -75t-74 -28t-73.5 28t-34.5 75zM289 281q0 -152 135 -152q76 0 137.5 80t61.5 233v52q-33 2 -62 2q-162 0 -217 -61.5 t-55 -153.5zM522 1266q0 45 33 74.5t76 29.5t75.5 -29.5t32.5 -74.5q0 -47 -34.5 -75t-73.5 -28t-74 29t-35 74z" />
<glyph unicode="&#xe5;" horiz-adv-x="942" d="M72 266q0 119 57 201t152 115q139 47 342 41v41q0 41 -3.5 67.5t-15.5 66.5t-45 61.5t-86 21.5q-133 0 -164 -158l-200 27q16 90 63 152.5t111.5 88t111.5 34.5t94 9q186 0 279 -108q29 -33 44 -90.5t17 -98.5t2 -114v-342q0 -211 17 -281h-195q-14 70 -14 168 q-20 -39 -36.5 -62.5t-50.5 -58.5t-84 -53.5t-114 -18.5q-127 0 -204.5 77t-77.5 214zM283 1300q0 82 56 136.5t132 54.5t132 -54.5t56 -136.5q0 -84 -59 -135t-129 -51q-68 0 -128 50t-60 136zM289 281q0 -152 135 -152q76 0 137.5 80t61.5 233v52q-33 2 -62 2 q-162 0 -217 -61.5t-55 -153.5zM385 1303q0 -41 26.5 -65t59.5 -24t59.5 24t26.5 62.5t-25.5 64.5t-60.5 26q-33 0 -59.5 -24.5t-26.5 -63.5z" />
<glyph unicode="&#xe6;" horiz-adv-x="1429" d="M72 270q0 113 57 198t154 118q119 39 329 39q0 35 1 69.5t-7 68.5t-22.5 60.5t-45 43t-75.5 16.5q-135 0 -166 -162l-191 27q27 170 166 241q86 45 201 45q117 0 191 -47q39 -25 77 -76q106 119 271 119q117 0 201.5 -73.5t117.5 -163.5q45 -121 49 -320h-567 q0 -39 1 -61.5t5 -69.5t17.5 -76.5t33 -63.5t55.5 -51.5t83 -17.5t79.5 17.5t51 52.5t25.5 56.5t18 59.5l186 -24q-8 -41 -17.5 -69.5t-37 -80t-62 -85t-99.5 -59.5t-146 -26q-209 0 -308 191q-20 -35 -39.5 -58.5t-58.5 -58.5t-98.5 -54.5t-132.5 -19.5q-154 0 -225.5 87 t-71.5 208zM285 283q0 -154 131 -154q14 0 30.5 2t51 21.5t59.5 54.5t42 109.5t13 177.5q-31 4 -57 4q-270 0 -270 -215zM817 614h350q-10 268 -170 269q-164 -1 -180 -269z" />
<glyph unicode="&#xe7;" horiz-adv-x="837" d="M72 502q0 78 9 146.5t34.5 141t68.5 125t116 86t169 33.5q86 0 150.5 -29.5t99.5 -65.5t59.5 -96.5t30.5 -91t14 -81.5l-200 -21q-6 43 -11.5 68.5t-16.5 58.5t-25.5 50.5t-40 29.5t-60.5 12q-102 0 -140 -94t-38 -291q0 -336 180 -336q45 0 76 20.5t46 59.5t20 65.5 t10 72.5l200 -17q-12 -82 -29.5 -137t-54.5 -111.5t-103.5 -87t-164.5 -37.5l-25 -71q70 4 105 -10q98 -31 98 -136q0 -72 -56 -119t-149 -47q-86 0 -198 62l28 76q82 -39 152 -39q82 0 82 63q0 29 -17.5 46.5t-44 22.5t-60.5 7t-64 0l55 152q-129 29 -195 110 q-110 140 -110 410z" />
<glyph unicode="&#xe8;" horiz-adv-x="907" d="M74 489q0 268 112.5 406.5t290.5 138.5q113 0 190.5 -52t114.5 -124q33 -63 49.5 -137t19.5 -120t5 -128h-569q0 -41 1 -65.5t6 -71.5t17.5 -77t33 -61.5t55 -48t81.5 -16.5t81 17.5t53.5 52.5t27.5 57.5t16 61.5l189 -27q-10 -39 -17.5 -64.5t-36 -79t-65.5 -87 t-103.5 -61.5t-150.5 -28q-209 0 -305 146.5t-96 367.5zM180 1352l109 137l319 -281l-76 -78zM291 614h354q0 84 -18 144q-23 68 -68 95.5t-88 27.5q-160 -1 -180 -267z" />
<glyph unicode="&#xe9;" horiz-adv-x="907" d="M74 489q0 268 112.5 406.5t290.5 138.5q113 0 190.5 -52t114.5 -124q33 -63 49.5 -137t19.5 -120t5 -128h-569q0 -41 1 -65.5t6 -71.5t17.5 -77t33 -61.5t55 -48t81.5 -16.5t81 17.5t53.5 52.5t27.5 57.5t16 61.5l189 -27q-10 -39 -17.5 -64.5t-36 -79t-65.5 -87 t-103.5 -61.5t-150.5 -28q-209 0 -305 146.5t-96 367.5zM291 614h354q0 84 -18 144q-23 68 -68 95.5t-88 27.5q-160 -1 -180 -267zM356 1208l320 281l108 -137l-352 -222z" />
<glyph unicode="&#xea;" horiz-adv-x="907" d="M74 489q0 268 112.5 406.5t290.5 138.5q113 0 190.5 -52t114.5 -124q33 -63 49.5 -137t19.5 -120t5 -128h-569q0 -41 1 -65.5t6 -71.5t17.5 -77t33 -61.5t55 -48t81.5 -16.5t81 17.5t53.5 52.5t27.5 57.5t16 61.5l189 -27q-10 -39 -17.5 -64.5t-36 -79t-65.5 -87 t-103.5 -61.5t-150.5 -28q-209 0 -305 146.5t-96 367.5zM98 1153l357 274l356 -274l-176 -14l-180 121l-181 -121zM291 614h354q0 84 -18 144q-23 68 -68 95.5t-88 27.5q-160 -1 -180 -267z" />
<glyph unicode="&#xeb;" horiz-adv-x="907" d="M74 489q0 268 112.5 406.5t290.5 138.5q113 0 190.5 -52t114.5 -124q33 -63 49.5 -137t19.5 -120t5 -128h-569q0 -41 1 -65.5t6 -71.5t17.5 -77t33 -61.5t55 -48t81.5 -16.5t81 17.5t53.5 52.5t27.5 57.5t16 61.5l189 -27q-10 -39 -17.5 -64.5t-36 -79t-65.5 -87 t-103.5 -61.5t-150.5 -28q-209 0 -305 146.5t-96 367.5zM186 1266q0 45 33 74.5t76 29.5t75.5 -29.5t32.5 -74.5q0 -47 -34.5 -75t-73.5 -28t-74 28t-35 75zM291 614h354q0 84 -18 144q-23 68 -68 95.5t-88 27.5q-160 -1 -180 -267zM506 1266q0 45 32.5 74.5t75.5 29.5 t76 -29.5t33 -74.5q0 -47 -35 -75t-74 -28t-73.5 29t-34.5 74z" />
<glyph unicode="&#xec;" horiz-adv-x="454" d="M-47 1352l108 137l320 -281l-76 -78zM123 0v1010h209v-1010h-209z" />
<glyph unicode="&#xed;" horiz-adv-x="454" d="M123 0v1010h209v-1010h-209zM129 1208l320 281l108 -137l-352 -222z" />
<glyph unicode="&#xee;" horiz-adv-x="454" d="M-129 1153l356 274l357 -274l-176 -14l-181 121l-180 -121zM123 0v1010h209v-1010h-209z" />
<glyph unicode="&#xef;" horiz-adv-x="454" d="M-41 1266q0 45 33 74.5t76 29.5t75.5 -29.5t32.5 -74.5q0 -47 -35 -75t-73.5 -28t-73.5 28t-35 75zM123 0v1010h209v-1010h-209zM279 1266q0 45 32.5 74.5t75.5 29.5t76 -29.5t33 -74.5q0 -47 -35 -75t-74 -28t-73.5 29t-34.5 74z" />
<glyph unicode="&#xf0;" horiz-adv-x="907" d="M55 506q0 129 25.5 228.5t63.5 154.5t88.5 90t90 45t78.5 10q76 0 144 -51q-33 98 -86 193l-215 -113l-64 115l213 112q-16 25 -53 82l168 88q8 -12 53 -82l236 123l63 -115l-231 -120q223 -401 223 -774q0 -68 -7 -130.5t-33 -136t-68 -126t-117.5 -88.5t-175.5 -36 q-113 0 -194 45.5t-123 124t-60.5 167t-18.5 194.5zM276 506q0 -197 44.5 -285t134.5 -88q88 0 132 87t44 286q0 195 -43 283t-135.5 88t-134.5 -92.5t-42 -278.5z" />
<glyph unicode="&#xf1;" horiz-adv-x="942" d="M123 0v1010h192v-156q14 35 26.5 54.5t41.5 54t75 53t107 18.5q162 0 226 -125q35 -68 34 -258v-651h-209v639q0 51 -1 75.5t-7 59.5t-18 51.5t-36 28.5t-58 12q-57 0 -94 -29.5t-50.5 -85t-16.5 -92t-3 -94.5v-565h-209zM162 1229q92 152 203 151q47 0 129 -43 q74 -43 110 -43q47 0 90 76l86 -57q-94 -154 -205 -154q-51 0 -129 45q-72 41 -102 41q-20 0 -39.5 -12t-30 -23.5t-28.5 -38.5z" />
<glyph unicode="&#xf2;" horiz-adv-x="942" d="M74 506q0 528 399 528q113 0 194 -45t122.5 -123t60 -164t18.5 -186q0 -541 -399 -541q-113 0 -193.5 45.5t-122.5 124t-60.5 167t-18.5 194.5zM197 1352l108 137l320 -281l-76 -78zM295 504q0 -195 43 -283t133 -88t133 87t43 286q0 193 -43 282t-133 89 q-94 0 -135 -92.5t-41 -280.5z" />
<glyph unicode="&#xf3;" horiz-adv-x="942" d="M74 506q0 528 399 528q113 0 194 -45t122.5 -123t60 -164t18.5 -186q0 -541 -399 -541q-113 0 -193.5 45.5t-122.5 124t-60.5 167t-18.5 194.5zM295 504q0 -195 43 -283t133 -88t133 87t43 286q0 193 -43 282t-133 89q-94 0 -135 -92.5t-41 -280.5zM373 1208l319 281 l109 -137l-352 -222z" />
<glyph unicode="&#xf4;" horiz-adv-x="942" d="M74 506q0 528 399 528q113 0 194 -45t122.5 -123t60 -164t18.5 -186q0 -541 -399 -541q-113 0 -193.5 45.5t-122.5 124t-60.5 167t-18.5 194.5zM115 1153l356 274l356 -274l-176 -14l-180 121l-180 -121zM295 504q0 -195 43 -283t133 -88t133 87t43 286q0 193 -43 282 t-133 89q-94 0 -135 -92.5t-41 -280.5z" />
<glyph unicode="&#xf5;" horiz-adv-x="942" d="M74 506q0 528 399 528q113 0 194 -45t122.5 -123t60 -164t18.5 -186q0 -541 -399 -541q-113 0 -193.5 45.5t-122.5 124t-60.5 167t-18.5 194.5zM162 1229q92 152 203 151q47 0 129 -43q74 -43 110 -43q47 0 90 76l86 -57q-94 -154 -205 -154q-51 0 -129 45 q-72 41 -102 41q-20 0 -39.5 -12t-30 -23.5t-28.5 -38.5zM295 504q0 -195 43 -283t133 -88t133 87t43 286q0 193 -43 282t-133 89q-94 0 -135 -92.5t-41 -280.5z" />
<glyph unicode="&#xf6;" horiz-adv-x="942" d="M74 506q0 528 399 528q113 0 194 -45t122.5 -123t60 -164t18.5 -186q0 -541 -399 -541q-113 0 -193.5 45.5t-122.5 124t-60.5 167t-18.5 194.5zM203 1266q0 45 32.5 74.5t75.5 29.5t76 -29.5t33 -74.5q0 -47 -35 -75t-74 -28t-73.5 28t-34.5 75zM295 504q0 -195 43 -283 t133 -88t133 87t43 286q0 193 -43 282t-133 89q-94 0 -135 -92.5t-41 -280.5zM522 1266q0 45 33 74.5t76 29.5t75.5 -29.5t32.5 -74.5q0 -47 -34.5 -75t-73.5 -28t-74 29t-35 74z" />
<glyph unicode="&#xf7;" d="M104 600v166h838v-166h-838zM422 270v228h203v-228h-203zM422 868v228h203v-228h-203z" />
<glyph unicode="&#xf8;" horiz-adv-x="942" d="M74 504q0 104 18.5 191t59.5 167t121.5 126t193.5 46q109 0 199 -45l55 111h121l-90 -182q117 -145 116 -406q0 -537 -399 -537q-92 0 -180 37l-60 -118h-120l92 184q-127 154 -127 426zM270 504q0 -158 31 -258l283 610q-45 29 -109 29q-100 0 -152.5 -84t-52.5 -297z M371 143q57 -20 96 -20q43 0 74.5 12t63.5 49t49.5 118t17.5 202q0 119 -25 235z" />
<glyph unicode="&#xf9;" horiz-adv-x="942" d="M117 365v645h209v-641q0 -53 1 -79t6 -60.5t17 -49t35 -26t57 -11.5q49 0 82 23.5t50.5 54.5t25.5 91.5t9 98.5t1 113v486h209v-1010h-192v152q-27 -53 -46.5 -82t-75.5 -62t-134 -33q-61 0 -106.5 15.5t-72 49.5t-43 65.5t-23.5 85t-8 85.5t-1 89zM197 1352l108 137 l320 -281l-76 -78z" />
<glyph unicode="&#xfa;" horiz-adv-x="942" d="M117 365v645h209v-641q0 -53 1 -79t6 -60.5t17 -49t35 -26t57 -11.5q49 0 82 23.5t50.5 54.5t25.5 91.5t9 98.5t1 113v486h209v-1010h-192v152q-27 -53 -46.5 -82t-75.5 -62t-134 -33q-61 0 -106.5 15.5t-72 49.5t-43 65.5t-23.5 85t-8 85.5t-1 89zM373 1208l319 281 l109 -137l-352 -222z" />
<glyph unicode="&#xfb;" horiz-adv-x="942" d="M115 1153l356 274l356 -274l-176 -14l-180 121l-180 -121zM117 365v645h209v-641q0 -53 1 -79t6 -60.5t17 -49t35 -26t57 -11.5q49 0 82 23.5t50.5 54.5t25.5 91.5t9 98.5t1 113v486h209v-1010h-192v152q-27 -53 -46.5 -82t-75.5 -62t-134 -33q-61 0 -106.5 15.5 t-72 49.5t-43 65.5t-23.5 85t-8 85.5t-1 89z" />
<glyph unicode="&#xfc;" horiz-adv-x="942" d="M117 365v645h209v-641q0 -53 1 -79t6 -60.5t17 -49t35 -26t57 -11.5q49 0 82 23.5t50.5 54.5t25.5 91.5t9 98.5t1 113v486h209v-1010h-192v152q-27 -53 -46.5 -82t-75.5 -62t-134 -33q-61 0 -106.5 15.5t-72 49.5t-43 65.5t-23.5 85t-8 85.5t-1 89zM203 1266 q0 45 32.5 74.5t75.5 29.5t76 -29.5t33 -74.5q0 -47 -35 -75t-74 -28t-73.5 28t-34.5 75zM522 1266q0 45 33 74.5t76 29.5t75.5 -29.5t32.5 -74.5q0 -47 -34.5 -75t-73.5 -28t-74 29t-35 74z" />
<glyph unicode="&#xfd;" horiz-adv-x="733" d="M0 1010h209l176 -693l180 693h189l-328 -1073q-18 -61 -30.5 -93t-37 -79.5t-51 -70t-72 -39.5t-102.5 -17q-43 0 -108 12v168q37 -6 73 -6q84 0 117 41t72 180zM268 1208l320 281l108 -137l-352 -222z" />
<glyph unicode="&#xfe;" horiz-adv-x="976" d="M121 -342v1708h207v-512q18 35 31.5 56.5t43 53t71.5 48t95 16.5q147 0 241.5 -133t94.5 -375q0 -309 -139 -454q-80 -84 -211 -84q-61 0 -110.5 22.5t-69 44t-45.5 55.5l-2 -446h-207zM328 422q0 -143 39 -205q51 -78 139 -78q96 0 137 94.5t41 280.5q0 360 -170 360 q-84 0 -135 -88t-51 -196v-168z" />
<glyph unicode="&#xff;" horiz-adv-x="733" d="M0 1010h209l176 -693l180 693h189l-328 -1073q-18 -61 -30.5 -93t-37 -79.5t-51 -70t-72 -39.5t-102.5 -17q-43 0 -108 12v168q37 -6 73 -6q84 0 117 41t72 180zM98 1266q0 45 33 74.5t76 29.5t75.5 -29.5t32.5 -74.5q0 -47 -34.5 -75t-73.5 -28t-74 28t-35 75zM418 1266 q0 45 32.5 74.5t75.5 29.5t76 -29.5t33 -74.5q0 -47 -35 -75t-74 -28t-73.5 29t-34.5 74z" />
<glyph unicode="&#x152;" horiz-adv-x="1640" d="M84 676q0 412 178 590q125 125 316 125q72 0 130 -27t81.5 -51.5t52.5 -61.5v115h774v-180h-569v-393h446v-181h-446v-428h573v-184h-784v127q-33 -47 -56.5 -72.5t-80 -52.5t-132.5 -27q-236 0 -368 207q-115 179 -115 494zM324 653q0 -492 272 -491q166 0 233 184v692 q-18 35 -30.5 55.5t-40 50.5t-69.5 45t-97 15q-125 0 -182 -94q-86 -140 -86 -457z" />
<glyph unicode="&#x153;" horiz-adv-x="1466" d="M74 504q0 98 16 183t56 168t121 131t196 48q190 0 293 -151q33 43 56.5 67.5t86 54t139.5 29.5q111 0 189 -52t114 -124q33 -63 49.5 -136t19.5 -119t5 -130h-567q0 -61 4 -102t19.5 -104.5t59.5 -98.5t111 -35q47 0 80 17.5t51.5 51.5t26.5 57.5t17 62.5l190 -27 q-10 -39 -17.5 -64.5t-36 -79t-65.5 -87t-103.5 -61.5t-150.5 -28q-182 0 -291 150q-106 -150 -280 -150q-113 0 -193 46.5t-120.5 127t-58 167t-17.5 188.5zM295 504q0 -195 42 -283t132 -88q96 0 134 98.5t38 272.5q0 113 -12.5 189.5t-52 130t-107.5 53.5 q-90 0 -132 -91.5t-42 -281.5zM852 614h350q2 115 -38 191t-132 76q-160 -1 -180 -267z" />
<glyph unicode="&#x178;" horiz-adv-x="837" d="M-63 1366h245l250 -569l254 569h217l-379 -788v-578h-225v578zM154 1606q0 47 34.5 77.5t77.5 30.5q47 0 80 -30.5t33 -75.5q0 -47 -35 -77t-78 -30q-41 0 -76.5 29t-35.5 76zM481 1608q0 45 34 75.5t79 30.5t79 -30.5t34 -77.5t-36 -76t-77 -29t-77 29t-36 78z" />
<glyph unicode="&#x2c6;" horiz-adv-x="1024" d="M156 1153l356 274l356 -274l-176 -14l-180 121l-180 -121z" />
<glyph unicode="&#x2dc;" horiz-adv-x="1024" d="M203 1229q92 152 203 151q47 0 129 -43q74 -43 110 -43q47 0 90 76l86 -57q-94 -154 -205 -154q-51 0 -129 45q-72 41 -102 41q-20 0 -39.5 -12t-30 -23.5t-28.5 -38.5z" />
<glyph unicode="&#x2000;" horiz-adv-x="919" />
<glyph unicode="&#x2001;" horiz-adv-x="1839" />
<glyph unicode="&#x2002;" horiz-adv-x="919" />
<glyph unicode="&#x2003;" horiz-adv-x="1839" />
<glyph unicode="&#x2004;" horiz-adv-x="612" />
<glyph unicode="&#x2005;" horiz-adv-x="458" />
<glyph unicode="&#x2006;" horiz-adv-x="305" />
<glyph unicode="&#x2007;" horiz-adv-x="305" />
<glyph unicode="&#x2008;" horiz-adv-x="229" />
<glyph unicode="&#x2009;" horiz-adv-x="366" />
<glyph unicode="&#x200a;" horiz-adv-x="100" />
<glyph unicode="&#x2010;" horiz-adv-x="593" d="M80 428v168h432v-168h-432z" />
<glyph unicode="&#x2011;" horiz-adv-x="593" d="M80 428v168h432v-168h-432z" />
<glyph unicode="&#x2012;" horiz-adv-x="593" d="M80 428v168h432v-168h-432z" />
<glyph unicode="&#x2013;" horiz-adv-x="837" d="M66 432v162h706v-162h-706z" />
<glyph unicode="&#x2014;" horiz-adv-x="1290" d="M63 432v162h1164v-162h-1164z" />
<glyph unicode="&#x2018;" horiz-adv-x="452" d="M109 885v248l137 256h100l-117 -250h97v-254h-217z" />
<glyph unicode="&#x2019;" horiz-adv-x="452" d="M109 862l116 250h-96v254h217v-248l-137 -256h-100z" />
<glyph unicode="&#x201a;" horiz-adv-x="452" d="M109 -250l116 250h-96v254h217v-248l-137 -256h-100z" />
<glyph unicode="&#x201c;" horiz-adv-x="768" d="M111 885v248l137 256h100l-117 -250h97v-254h-217zM418 885v248l137 256h100l-116 -250h96v-254h-217z" />
<glyph unicode="&#x201d;" horiz-adv-x="768" d="M111 862l116 250h-96v254h217v-248l-137 -256h-100zM418 862l117 250h-97v254h217v-248l-137 -256h-100z" />
<glyph unicode="&#x201e;" horiz-adv-x="768" d="M111 -250l116 250h-96v254h217v-248l-137 -256h-100zM418 -250l117 250h-97v254h217v-248l-137 -256h-100z" />
<glyph unicode="&#x2022;" horiz-adv-x="247" d="M0 557v281h248v-281h-248z" />
<glyph unicode="&#x2026;" horiz-adv-x="1466" d="M131 0v258h227v-258h-227zM621 0v258h227v-258h-227zM1110 0v258h227v-258h-227z" />
<glyph unicode="&#x202f;" horiz-adv-x="366" />
<glyph unicode="&#x2039;" horiz-adv-x="489" d="M90 524l193 328h116l-108 -328l108 -325h-116z" />
<glyph unicode="&#x203a;" horiz-adv-x="489" d="M90 199l107 325l-107 328h117l192 -328l-192 -325h-117z" />
<glyph unicode="&#x205f;" horiz-adv-x="458" />
<glyph unicode="&#x20ac;" d="M41 465l53 158h80q-2 16 -2 67q0 43 2 62h-133l53 157h94q70 481 484 482q195 0 293 -72v-199q-92 84 -265 84q-262 0 -301 -295h498l-53 -157h-463q-2 -16 -2 -62q0 -49 2 -67h418l-54 -158h-346q41 -303 303 -303q168 0 263 86v-203q-86 -68 -293 -68q-410 0 -482 488 h-149z" />
<glyph unicode="&#x2122;" horiz-adv-x="1466" d="M31 1245v121h499v-121h-176v-657h-151v657h-172zM592 588v778h223l143 -559l152 559h217v-778h-141v653l-178 -653h-121l-168 655v-655h-127z" />
<glyph unicode="&#xe000;" horiz-adv-x="1010" d="M0 1010h1010v-1010h-1010v1010z" />
<glyph unicode="&#xfb01;" horiz-adv-x="976" d="M20 842v168h134q2 78 4 115.5t18.5 102t45 95.5t86 56.5t141.5 25.5q39 0 96 -8v-168q-29 4 -51 4q-61 0 -93 -23.5t-38.5 -54.5t-6.5 -88v-57h176v-168h-176v-842h-202v842h-134zM641 1147v221h217v-221h-217zM645 0v1010h209v-1010h-209z" />
<glyph unicode="&#xfb02;" horiz-adv-x="976" d="M20 842v168h134q2 78 4 115.5t18.5 102t45 95.5t86 56.5t141.5 25.5q39 0 96 -8v-168q-29 4 -51 4q-61 0 -93 -23.5t-38.5 -54.5t-6.5 -88v-57h176v-168h-176v-842h-202v842h-134zM645 0v1366h209v-1366h-209z" />
<glyph unicode="&#xfb03;" horiz-adv-x="1503" d="M1166 1147v221h219v-221h-219zM1172 0v1010h209v-1010h-209zM544 842v168h134q2 49 3 71.5t4 67.5t11 68.5t21.5 58.5t35 53.5t51 39t71.5 28.5t95 8q57 0 123 -12v-166q-37 8 -77 8q-92 0 -114 -46t-22 -179h183v-168h-183v-842h-202v842h-134zM20 842v168h134 q2 49 3 71.5t4 67.5t11 68.5t21.5 58.5t35 53.5t51 39t71.5 28.5t95 8q57 0 123 -12v-166q-37 8 -77 8q-92 0 -114 -46t-22 -179h183v-168h-183v-842h-202v842h-134z" />
<glyph unicode="&#xfb04;" horiz-adv-x="1503" d="M1172 0v1366h209v-1366h-209zM544 842v168h134q2 49 3 71.5t4 67.5t11 68.5t21.5 58.5t35 53.5t51 39t71.5 28.5t95 8q57 0 123 -12v-166q-37 8 -77 8q-92 0 -114 -46t-22 -179h183v-168h-183v-842h-202v842h-134zM20 842v168h134q2 49 3 71.5t4 67.5t11 68.5t21.5 58.5 t35 53.5t51 39t71.5 28.5t95 8q57 0 123 -12v-166q-37 8 -77 8q-92 0 -114 -46t-22 -179h183v-168h-183v-842h-202v842h-134z" />
</font>
</defs>
</svg>
