<?xml version="1.0" standalone="no"?>
<!DOCTYPE svg PUBLIC "-//W3C//DTD SVG 1.1//EN" "http://www.w3.org/Graphics/SVG/1.1/DTD/svg11.dtd" >
<svg xmlns="http://www.w3.org/2000/svg">
<metadata>
This is a custom SVG webfont generated by Font Squirrel.
Copyright   : Copyright c 1995 Adobe Systems Incorporated All Rights ReservedITC Franklin Gothic is a registered trademark of International Typeface Corporation
</metadata>
<defs>
<font id="ITCFranklinGothicBkCn" horiz-adv-x="1046" >
<font-face units-per-em="2048" ascent="1536" descent="-512" />
<missing-glyph horiz-adv-x="512" />
<glyph unicode=" "  horiz-adv-x="512" />
<glyph unicode="&#x09;" horiz-adv-x="512" />
<glyph unicode="&#xa0;" horiz-adv-x="512" />
<glyph unicode="!" horiz-adv-x="698" d="M246 1366h207l-54 -1032h-100zM256 0v209h186v-209h-186z" />
<glyph unicode="&#x22;" horiz-adv-x="698" d="M125 1366h168l-29 -528h-110zM406 1366h167l-28 -528h-111z" />
<glyph unicode="#" d="M20 432l21 117h209l55 303h-211l23 117h209l71 397h123l-71 -397h245l74 397h123l-72 -397h209l-20 -117h-211l-54 -303h209l-20 -117h-211l-78 -432h-123l78 432h-246l-78 -432h-124l79 432h-209zM373 549h245l56 303h-246z" />
<glyph unicode="$" d="M109 350l131 62q70 -221 237 -244v475q-39 12 -66.5 21.5t-78.5 38t-84 62.5t-58.5 95.5t-25.5 134.5q0 160 94 248t219 98v136h113v-136q137 -10 210.5 -72.5t117.5 -189.5l-119 -49q-41 94 -86 139t-123 52v-443q51 -12 84 -22.5t88 -38t88 -63.5t59.5 -98t26.5 -140 q0 -217 -156 -316q-74 -47 -190 -61v-176h-113v176q-162 25 -241.5 97.5t-126.5 213.5zM303 1010q0 -158 174 -207v416q-174 -31 -174 -209zM590 168q113 10 160 75.5t47 149.5q0 63 -20.5 107.5t-60.5 68t-62.5 31.5t-63.5 18v-450z" />
<glyph unicode="%" horiz-adv-x="1394" d="M98 1028q0 160 73 257t195.5 97t195.5 -98t73 -256q0 -160 -71.5 -258t-196.5 -98q-123 0 -196 97t-73 259zM229 1026q0 -250 138 -250q80 0 108.5 66.5t28.5 183.5q0 123 -30 187.5t-107 64.5q-45 0 -75 -22.5t-42 -64.5t-16.5 -79t-4.5 -86zM299 0l682 1366h121 l-684 -1366h-119zM762 338q0 158 72.5 256t195.5 98t194.5 -97t71.5 -257q0 -162 -72.5 -258t-193.5 -96q-123 0 -195.5 96t-72.5 258zM893 338q0 -121 30.5 -185.5t106.5 -64.5q80 0 107.5 67.5t27.5 182.5q0 72 -7 120t-39 89t-89 41h-2q-135 0 -135 -250z" />
<glyph unicode="&#x26;" horiz-adv-x="1255" d="M109 375q0 76 24.5 141.5t53 105.5t77.5 78.5t71.5 52t61.5 33.5q-113 195 -112 322q0 109 77.5 198t212.5 89q131 0 201 -77t70 -194q0 -221 -260 -379l268 -405q94 150 133 405l125 -32q-29 -170 -68.5 -276.5t-113.5 -213.5q49 -63 77.5 -84.5t75.5 -21.5q33 0 70 12 v-129q-72 -23 -113 -23q-70 0 -110.5 32t-95.5 108q-43 -39 -74 -63.5t-104.5 -53.5t-155.5 -29q-170 0 -280.5 113t-110.5 291zM268 379q0 -127 69 -205t179 -78q141 0 250 127l-303 461q-55 -35 -91 -66.5t-70 -95t-34 -143.5zM426 1114q0 -115 92 -270q188 113 189 270 q0 74 -39 118t-101 44q-59 0 -100 -44t-41 -118z" />
<glyph unicode="'" horiz-adv-x="417" d="M125 1366h168l-29 -528h-110z" />
<glyph unicode="(" horiz-adv-x="628" d="M109 512q0 152 31.5 294t91 260t92 172t84.5 128h120q-254 -393 -254 -854q0 -459 254 -854h-120q-117 162 -185 317q-114 265 -114 537z" />
<glyph unicode=")" horiz-adv-x="628" d="M100 -342q254 399 254 854q0 457 -254 854h121q299 -418 299 -854q0 -279 -114 -537q-66 -154 -185 -317h-121z" />
<glyph unicode="*" d="M180 893l246 111l-246 110l60 123l237 -156l-20 285h133l-21 -285l238 156l59 -123l-245 -110l245 -111l-59 -123l-238 156l21 -285h-133l20 285l-237 -156z" />
<glyph unicode="+" d="M104 621v124h353v357h133v-357h352v-124h-352v-357h-133v357h-353z" />
<glyph unicode="," horiz-adv-x="489" d="M133 -260l121 260h-84v221h186v-221l-133 -260h-90z" />
<glyph unicode="-" horiz-adv-x="593" d="M72 446v123h450v-123h-450z" />
<glyph unicode="." horiz-adv-x="489" d="M152 0v221h186v-221h-186z" />
<glyph unicode="/" horiz-adv-x="907" d="M-45 -342l688 1708h129l-690 -1708h-127z" />
<glyph unicode="0" d="M86 668q0 342 90 512q117 215 348 215q96 0 172 -37t121 -101.5t76 -134t44 -155.5t18.5 -146.5t5.5 -122.5q0 -444 -166 -616q-106 -111 -271 -111q-98 0 -175 37t-122 103.5t-75.5 137t-44 158t-17.5 144t-4 117.5zM252 682q0 -57 2 -104.5t16.5 -145.5t40 -163.5 t80.5 -119t133 -53.5q55 0 99.5 28t72 67.5t48 101t29.5 112t14.5 116t6.5 94t1 67.5t-1 68.5t-6.5 95t-14.5 115t-29.5 112t-48 102t-71.5 67.5t-100 28q-78 0 -133 -53.5t-80.5 -119t-40 -163.5t-16.5 -145.5t-2 -106.5z" />
<glyph unicode="1" d="M236 952v164q172 100 296 266h113v-1259h219v-123h-616v123h231v1032q-85 -113 -243 -203z" />
<glyph unicode="2" d="M74 0v137q369 317 538 535q123 158 123 307q0 41 -11 84t-36.5 89t-78 74.5t-126.5 28.5q-217 0 -264 -290l-145 30q12 61 23.5 97t41 90.5t72.5 97.5q117 115 291 115q184 0 291.5 -112t107.5 -294q0 -84 -21.5 -155.5t-85 -172t-195.5 -228.5t-337 -292h639v-141h-827z " />
<glyph unicode="3" d="M47 307l135 47q43 -150 131 -207q78 -49 168 -49q37 0 77 11.5t86 38t76 87t30 146.5q0 76 -27 130t-59.5 79.5t-86 39t-83 15.5t-74.5 2h-88v123h88q57 0 83.5 2t62.5 12.5t65 32.5q84 66 84 197q0 119 -64.5 187.5t-167.5 68.5q-68 0 -119 -23.5t-79.5 -67.5t-41 -71 t-24.5 -70l-131 41q12 41 21.5 68t41 79t70.5 83.5t112 58.5t163 27q172 0 279.5 -97.5t107.5 -273.5q0 -72 -19.5 -126t-59.5 -90t-67.5 -51.5t-74.5 -37.5q31 -8 53 -15.5t67 -33t73 -59t51.5 -95t23.5 -139.5q0 -170 -116 -287t-331 -117q-233 0 -352 144q-57 67 -84 190 z" />
<glyph unicode="4" d="M72 330v110l516 955h205v-942h184v-123h-184v-330h-156v330h-565zM223 453h414v813z" />
<glyph unicode="5" d="M100 295l142 53q16 -51 30.5 -83t44 -72.5t79.5 -61t120 -20.5q127 0 193 77q78 98 77 271q0 324 -256 323q-82 0 -142 -36.5t-80.5 -68.5t-43.5 -79l-114 29l36 739h695l-15 -141h-551l-20 -437q35 43 59.5 66t81 45.5t127.5 22.5q102 0 180 -40t121 -107.5t63.5 -145.5 t20.5 -164q0 -135 -40 -235.5t-107.5 -153.5t-140 -79t-152.5 -26q-174 0 -289 105q-84 78 -119 219z" />
<glyph unicode="6" d="M115 641q0 334 120.5 544t350.5 210q78 0 142.5 -24.5t101 -54.5t67.5 -80t41 -76.5t25 -69.5l-144 -50q-33 102 -83 158.5t-152 56.5q-180 0 -250 -188q-57 -156 -68 -412q18 43 34.5 72t53.5 74t97.5 69.5t140.5 24.5q170 0 277.5 -128t107.5 -327q0 -195 -107.5 -332 t-304.5 -137q-238 0 -366 236q-84 162 -84 434zM301 438q0 -119 68.5 -223t203.5 -104q70 0 119 29.5t72.5 66.5t37 90t14.5 78.5t1 54.5q0 160 -67.5 243t-171.5 83q-82 0 -140.5 -36t-86 -90.5t-39 -101.5t-11.5 -90z" />
<glyph unicode="7" d="M166 1225l14 141h770v-100q-57 -78 -93 -133.5t-104.5 -201t-119.5 -317.5q-90 -307 -90 -614h-170q0 233 53 451q59 248 143 413.5t222 360.5h-625z" />
<glyph unicode="8" d="M76 342q0 84 28.5 151.5t83 112.5t86 63.5t80.5 43.5q-43 25 -71.5 44t-70.5 59t-63.5 95.5t-21.5 124.5q0 150 106.5 254.5t301.5 104.5q180 0 285.5 -96.5t105.5 -249.5q0 -205 -244 -316q289 -131 289 -375q0 -160 -120 -273.5t-333 -113.5q-219 0 -330.5 104.5 t-111.5 266.5zM229 348q0 -121 86 -186.5t205 -65.5q106 0 195.5 57.5t89.5 182.5q0 111 -75 180.5t-222 122.5q-43 -16 -66.5 -25.5t-70.5 -36t-73 -54t-47.5 -75t-21.5 -100.5zM293 1055q0 -184 225 -267q53 20 86 35t80 46.5t70.5 76.5t23.5 105q0 94 -68.5 156.5 t-179.5 62.5q-104 0 -170.5 -60.5t-66.5 -154.5z" />
<glyph unicode="9" d="M74 924q0 213 117.5 342t306.5 129q430 0 430 -647q0 -109 -10.5 -206.5t-42 -206t-82 -185t-140.5 -128t-207 -51.5q-86 0 -150.5 26t-105 76t-58 82.5t-40.5 88.5l139 63q14 -43 27.5 -69.5t39.5 -60.5t67 -50t98 -16q174 0 242 196q53 152 63 387q-18 -41 -35.5 -69.5 t-54.5 -70.5t-93.5 -64.5t-127.5 -22.5q-152 0 -267.5 121t-115.5 336zM233 924q0 -152 74 -235t182 -83q119 0 185.5 98.5t66.5 227.5q0 125 -61.5 224t-185.5 99q-127 0 -194 -92t-67 -239z" />
<glyph unicode=":" horiz-adv-x="489" d="M152 0v221h186v-221h-186zM152 788v222h186v-222h-186z" />
<glyph unicode=";" horiz-adv-x="489" d="M133 -260l121 260h-84v221h186v-221l-133 -260h-90zM170 788v222h186v-222h-186z" />
<glyph unicode="&#x3c;" d="M80 623v120l887 410v-135l-740 -336l740 -334v-137z" />
<glyph unicode="=" d="M104 502v125h838v-125h-838zM104 739v125h838v-125h-838z" />
<glyph unicode="&#x3e;" d="M80 211v137l741 334l-741 336v135l887 -412v-118z" />
<glyph unicode="?" horiz-adv-x="1011" d="M80 995q23 170 98 269q102 131 311 131q166 0 274.5 -95.5t108.5 -269.5q0 -123 -50 -201.5t-158 -164.5q-104 -82 -127 -134.5t-17 -187.5h-147q2 166 21.5 237.5t103.5 137.5q86 68 121.5 100.5t61.5 85.5t26 127q0 104 -52.5 172t-171.5 68q-236 0 -260 -314zM352 0 v209h187v-209h-187z" />
<glyph unicode="@" horiz-adv-x="1185" d="M8 662q0 199 67.5 361.5t214 267t349.5 104.5q240 0 390.5 -161t150.5 -456q0 -229 -88 -363t-226 -134q-43 0 -72.5 11t-44 33.5t-20.5 37t-10 36.5q-18 -37 -32.5 -58.5t-53.5 -45t-92 -23.5q-115 0 -173.5 90.5t-58.5 239.5q0 190 82 320.5t213 130.5q43 0 76 -14.5 t51.5 -42t26.5 -44t16 -43.5l19 127h104l-59 -426q-14 -143 -15 -147q0 -68 54 -68q86 0 137 102.5t51 256.5q0 293 -147 434q-115 111 -285 110q-231 0 -365.5 -186t-134.5 -444q0 -268 144.5 -433t379.5 -165q186 0 373 104l37 -90q-215 -113 -418 -113q-281 0 -461 181.5 t-180 509.5zM444 608q0 -106 33 -160.5t78 -54.5q76 0 121 105.5t45 232.5q0 80 -25.5 140.5t-87.5 60.5q-74 0 -119 -95.5t-45 -228.5z" />
<glyph unicode="A" horiz-adv-x="1011" d="M33 0l383 1366h196l365 -1366h-168l-100 391h-410l-98 -391h-168zM332 524h342l-170 680z" />
<glyph unicode="B" horiz-adv-x="1081" d="M143 0v1366h371q84 0 129 -3t106.5 -26.5t100.5 -68.5q82 -94 82 -240q0 -221 -209 -303q256 -68 256 -344q0 -381 -455 -381h-381zM309 137h211q287 0 287 252q0 141 -96 209q-72 51 -224 51h-178v-512zM309 786h183q53 0 89.5 6.5t83 26t71 68.5t24.5 125 q0 61 -19.5 105t-44 65.5t-64.5 33t-61.5 12.5t-56.5 1h-205v-443z" />
<glyph unicode="C" d="M90 678q0 61 5 119.5t18.5 147.5t47.5 162t84 141.5t134 107.5t192 39q96 0 171 -33t117 -76t74 -108.5t42 -105.5t20 -93l-157 -39q-10 55 -18.5 86t-29 81t-45 77.5t-68.5 49t-102 21.5q-72 0 -127 -31.5t-86.5 -88t-53 -114.5t-30 -132t-10.5 -116t-2 -91 q0 -90 10.5 -173t39 -181.5t95 -157.5t164.5 -59q113 0 169.5 68.5t93.5 248.5l149 -37q-16 -90 -38.5 -154.5t-67.5 -130t-125 -100.5t-191 -35q-119 0 -208 49.5t-138 121t-79.5 172t-40 185.5t-9.5 179z" />
<glyph unicode="D" horiz-adv-x="1150" d="M143 0v1366h295q145 0 259 -45t181.5 -114.5t110.5 -163t58.5 -178.5t15.5 -173q0 -139 -38 -261t-111.5 -220t-195.5 -154.5t-280 -56.5h-295zM309 137h129q121 0 210 46t140.5 125t75 171t23.5 199q0 254 -116 402.5t-333 148.5h-129v-1092z" />
<glyph unicode="E" horiz-adv-x="942" d="M143 0v1366h744v-137h-578v-453h455v-137h-455v-502h594v-137h-760z" />
<glyph unicode="F" horiz-adv-x="837" d="M143 0v1366h717v-137h-551v-453h453v-137h-453v-639h-166z" />
<glyph unicode="G" horiz-adv-x="1150" d="M90 672q0 100 10.5 189t43 190.5t85 174t145.5 121t216 48.5q193 0 285 -99.5t137 -275.5l-150 -57q-20 70 -34.5 106.5t-45 87.5t-80 74.5t-116.5 23.5q-319 0 -320 -569q0 -575 320 -575q68 0 119 24.5t79.5 68.5t47 87t23.5 99t6 85t1 64h-278v137h440v-694h-115 l-22 186q-20 -37 -36.5 -59.5t-54.5 -60.5t-98.5 -57.5t-138.5 -19.5q-143 0 -243.5 75t-145.5 194.5t-62.5 223.5t-17.5 208z" />
<glyph unicode="H" horiz-adv-x="1116" d="M143 0v1366h166v-580h498v580h166v-1366h-166v649h-498v-649h-166z" />
<glyph unicode="I" horiz-adv-x="454" d="M143 0v1366h166v-1366h-166z" />
<glyph unicode="J" horiz-adv-x="628" d="M-37 0v135q70 -25 141 -24q53 0 90 9t62 39.5t37 56.5t18 91.5t7 110.5t1 145v803h166v-803v-105q0 -36 -3 -97.5t-9 -93t-18.5 -81t-29.5 -75t-44 -57t-60.5 -46t-80.5 -26t-105 -11.5q-94 0 -172 29z" />
<glyph unicode="K" horiz-adv-x="1011" d="M143 0v1366h166v-719l477 719h187l-359 -500l445 -866h-191l-360 717l-199 -281v-436h-166z" />
<glyph unicode="L" horiz-adv-x="802" d="M143 0v1366h166v-1229h518v-137h-684z" />
<glyph unicode="M" horiz-adv-x="1396" d="M139 0v1366h240l321 -1100l322 1100h233v-1366h-155v1184l-352 -1184h-121l-344 1186v-1186h-144z" />
<glyph unicode="N" horiz-adv-x="1150" d="M137 0v1366h211l522 -1079v1079h144v-1366h-164l-569 1163v-1163h-144z" />
<glyph unicode="O" horiz-adv-x="1150" d="M90 682q0 125 19.5 235.5t67.5 225t151.5 183.5t251.5 69q117 0 205.5 -46t139 -116t83 -169t43 -189.5t10.5 -192.5q0 -129 -19.5 -240.5t-67.5 -224.5t-148.5 -179.5t-245.5 -66.5q-121 0 -213.5 49.5t-143.5 122t-82.5 173t-41 186.5t-9.5 180zM262 682 q0 -279 78 -426q76 -147 240 -147q154 0 231.5 145t77.5 428t-78 428q-37 72 -91 109.5t-145 37.5q-158 0 -235 -145q-78 -149 -78 -430z" />
<glyph unicode="P" horiz-adv-x="976" d="M143 0v1366h293q281 0 391 -119q106 -117 107 -293q0 -106 -43 -195t-123 -138q-100 -66 -332 -66h-127v-555h-166zM309 692h127q59 0 91 2t84.5 15.5t80 39t49 78t21.5 127.5q0 123 -62 199q-41 51 -93 63.5t-171 12.5h-127v-537z" />
<glyph unicode="Q" horiz-adv-x="1150" d="M90 682q0 98 10.5 187t42 188.5t84 171t142.5 119t211 47.5q117 0 207 -47.5t140 -119t81.5 -171t42 -188.5t10.5 -187q0 -395 -166 -582q-66 -76 -197 -114v-21q0 -80 29 -120q33 -44 135 -44q47 0 105 21v-135q-78 -29 -140 -29q-289 0 -284 315q-119 10 -209 64 q-80 47 -133.5 137t-75 195.5t-28.5 176t-7 136.5zM264 682q0 -283 78 -426q76 -147 233 -147q156 0 234 145q78 147 78 430q0 281 -76 426q-80 147 -235.5 147t-233.5 -145q-78 -147 -78 -430z" />
<glyph unicode="R" d="M143 0v1366h398q178 0 276 -76q131 -98 131 -297q0 -250 -225 -358l256 -635h-178l-230 596h-262v-596h-166zM309 733h207q137 0 201.5 72t64.5 190q0 131 -76.5 182.5t-177.5 51.5h-219v-496z" />
<glyph unicode="S" d="M61 358l152 43q8 -39 16.5 -65.5t33 -73.5t56 -76.5t88 -52t130.5 -22.5q137 0 198.5 73.5t61.5 159.5q0 57 -21.5 102.5t-66.5 77t-82 50t-99 40.5q-135 53 -189 80t-103 70q-53 47 -86 120.5t-33 149.5q0 141 103.5 251t299.5 110q88 0 158 -28t109.5 -62.5t72.5 -90 t44 -85t24 -74.5l-148 -43q-18 53 -33.5 85.5t-46 74.5t-79 62.5t-115.5 20.5q-123 0 -175 -68.5t-52 -144.5q0 -98 66.5 -147t234.5 -113q68 -27 104.5 -42t99 -53t96 -77t61.5 -101.5t28 -137.5q0 -152 -108.5 -276t-328.5 -124q-213 0 -335 115q-101 92 -136 272z" />
<glyph unicode="T" horiz-adv-x="733" d="M-43 1227v139h819v-139h-327v-1227h-166v1227h-326z" />
<glyph unicode="U" horiz-adv-x="1116" d="M143 463v903h166v-903q0 -51 1 -77t5 -71t13.5 -68.5t28 -53t44 -45t66.5 -26.5t92 -11q74 0 125 22.5t76.5 51t39 85t15.5 93t2 108.5v895h156v-887q0 -61 -1 -94t-9.5 -94.5t-22.5 -98t-45 -84t-75 -74t-111.5 -45t-155.5 -18.5q-96 0 -169 20.5t-116 62.5t-69.5 84 t-37.5 107.5t-14.5 108.5t-3.5 109z" />
<glyph unicode="V" horiz-adv-x="942" d="M14 1366h170l299 -1128l295 1128h158l-381 -1366h-170z" />
<glyph unicode="W" horiz-adv-x="1431" d="M37 1366h162l219 -1085l241 1085h132l247 -1085l215 1085h146l-283 -1366h-155l-244 1044l-234 -1044h-153z" />
<glyph unicode="X" horiz-adv-x="872" d="M-14 0l356 713l-309 653h182l223 -502l256 502h148l-312 -623l357 -743h-193l-260 586l-293 -586h-155z" />
<glyph unicode="Y" horiz-adv-x="802" d="M-59 1366h176l299 -629l295 629h151l-377 -788v-578h-166v578z" />
<glyph unicode="Z" horiz-adv-x="837" d="M12 0v145l619 1084h-586v137h772v-113l-633 -1108h645v-145h-817z" />
<glyph unicode="[" horiz-adv-x="628" d="M168 -342v1708h301v-104h-152v-1500h152v-104h-301z" />
<glyph unicode="\" horiz-adv-x="907" d="M104 1366h129l689 -1708h-127z" />
<glyph unicode="]" horiz-adv-x="628" d="M158 -238h151v1500h-151v104h301v-1708h-301v104z" />
<glyph unicode="^" d="M68 625l385 755h157l369 -755h-158l-299 612l-299 -612h-155z" />
<glyph unicode="_" horiz-adv-x="1024" d="M0 -154h1024v-102h-1024v102z" />
<glyph unicode="`" horiz-adv-x="1024" d="M201 1366l104 113l305 -254l-69 -74z" />
<glyph unicode="a" horiz-adv-x="942" d="M82 274q0 133 76 226q109 129 366 129q59 0 133 -8v43q0 250 -188 249q-55 0 -95 -17t-61.5 -48t-29 -49.5t-15.5 -44.5l-147 24q31 150 164 217q86 43 194 43q180 0 266 -106q29 -35 43.5 -92.5t16.5 -99.5t2 -119v-297q0 -233 18 -324h-143q-12 88 -12 178 q-23 -43 -39.5 -68.5t-51 -62.5t-85 -56.5t-115.5 -19.5q-133 0 -215 82t-82 221zM240 270q0 -174 168 -174q133 0 206 129q35 63 42 123q4 32 4 74q0 36 -3 80q-68 12 -116 12q-301 0 -301 -244z" />
<glyph unicode="b" horiz-adv-x="976" d="M135 0v1366h150v-489q98 154 256 153q129 0 217 -84q135 -137 135 -428q0 -66 -6 -127t-29.5 -140t-63.5 -135.5t-114 -96t-172 -39.5q-61 0 -105.5 12t-73 39.5t-43 49t-34.5 60.5q-6 -18 -9 -31.5t-11.5 -42t-18.5 -67.5h-78zM285 432q0 -328 223 -328q74 0 121 39 t66.5 111t25.5 129t6 135q0 88 -8 150.5t-29.5 120t-66.5 87t-111 29.5q-96 0 -161.5 -89t-65.5 -230v-154z" />
<glyph unicode="c" horiz-adv-x="837" d="M84 494q0 545 377 544q76 0 134 -24.5t91 -56t57.5 -85t32.5 -88t19 -88.5l-152 -30q-8 49 -12 75.5t-17.5 65.5t-32 57.5t-50 33.5t-74.5 15q-111 0 -159 -98t-48 -344q0 -41 1 -69.5t7 -79t19.5 -84t36 -69.5t60.5 -54.5t87 -18.5q45 0 77.5 17.5t50 40t30 61.5 t16.5 62.5t8 64.5l152 -18q-8 -55 -16.5 -91t-32 -91.5t-57.5 -87t-95.5 -57.5t-142.5 -26q-106 0 -182 46t-114 126t-54.5 165.5t-16.5 185.5z" />
<glyph unicode="d" horiz-adv-x="976" d="M82 492q0 256 98.5 397t259.5 141q59 0 106.5 -15.5t76 -46t41 -48t28.5 -48.5v494h150v-1366h-135v141q-88 -162 -271 -161q-92 0 -159.5 39.5t-103.5 95t-58.5 132.5t-27.5 132.5t-5 112.5zM248 512q0 -408 227 -408q102 0 164 82q53 68 53 246v168q0 137 -57 217 q-63 88 -168 88q-219 0 -219 -393z" />
<glyph unicode="e" horiz-adv-x="907" d="M84 489q0 270 111.5 409.5t281.5 139.5q352 0 361 -553h-596q0 -389 235 -389q51 0 88 18.5t60.5 55.5t34 62.5t22.5 66.5l141 -33q-80 -295 -354 -295q-201 0 -293 147.5t-92 370.5zM250 608h418q0 131 -48.5 218t-158.5 87q-184 0 -211 -305z" />
<glyph unicode="f" horiz-adv-x="489" d="M18 887v123h146q2 59 3 86.5t6 77t15.5 74t30 58t47 49t69.5 28t97 12.5q57 0 115 -13v-122q-41 10 -72 10q-106 0 -134 -53.5t-28 -206.5h185v-123h-185v-887h-149v887h-146z" />
<glyph unicode="g" horiz-adv-x="872" d="M63 -121q0 154 134 201q-94 63 -95 158q0 129 131 186q-117 111 -116 266q0 152 101 250t237 98q76 0 168 -43q10 51 27.5 85t36 51.5t51 25.5t55 9t67.5 1v-127q-20 4 -41 4q-90 0 -106 -126q78 -106 78 -228q0 -131 -86.5 -238.5t-253.5 -107.5q-59 0 -125 18 q-25 -8 -39.5 -15t-29.5 -27.5t-15 -51.5q0 -63 47 -78.5t219 -23.5q82 -4 123 -8t100.5 -18.5t88 -40t51 -74t22.5 -117.5q0 -96 -50 -160.5t-130 -90.5t-136.5 -34t-111.5 -8q-47 0 -92 4t-104.5 20.5t-101.5 43t-73 77.5t-31 119zM215 -94q0 -94 66.5 -132t193.5 -38 q264 0 264 166q0 94 -88 121q-41 12 -350 20q-25 -16 -38 -26.5t-30.5 -41t-17.5 -69.5zM272 686q0 -119 55.5 -172t125.5 -53q76 0 130 59.5t54 165.5q0 90 -45 158.5t-131 68.5q-49 0 -87 -18t-56.5 -44t-30 -60.5t-13.5 -58t-2 -46.5z" />
<glyph unicode="h" horiz-adv-x="942" d="M135 0v1366h150v-512q63 184 252 184q168 0 235 -127q35 -68 35 -284v-627h-150v627q0 55 -1 83.5t-9 74.5t-24.5 69t-49 41t-79.5 18q-66 0 -111 -39.5t-64.5 -107.5t-26.5 -123t-7 -115v-528h-150z" />
<glyph unicode="i" horiz-adv-x="417" d="M129 1188v174h162v-174h-162zM135 0v1010h150v-1010h-150z" />
<glyph unicode="j" horiz-adv-x="417" d="M-84 -217q57 -16 100 -16q84 0 101.5 48t17.5 222v973h150v-973q0 -68 -1 -101.5t-8.5 -89t-22.5 -85t-42 -61.5t-72 -45t-106 -13q-55 0 -117 16v125zM129 1188v174h162v-174h-162z" />
<glyph unicode="k" horiz-adv-x="837" d="M135 0v1366h150v-858l360 502h164l-264 -357l299 -653h-162l-238 537l-159 -220v-317h-150z" />
<glyph unicode="l" horiz-adv-x="417" d="M135 0v1366h150v-1366h-150z" />
<glyph unicode="m" horiz-adv-x="1429" d="M135 0v1010h139v-154q27 57 46.5 88t72.5 62.5t129 31.5q70 0 118 -20.5t72.5 -58t34 -63.5t17.5 -62q16 41 28.5 61t43 61t80 61.5t114.5 20.5q152 0 223 -112q43 -68 43 -303v-623h-149v614q0 61 -1 92t-9.5 78t-23.5 70t-45 41t-75 18q-61 0 -105 -31.5t-63.5 -84 t-26.5 -100.5t-7 -101v-596h-150v682q0 135 -40 183t-118 48q-111 0 -168 -114q-31 -66 -30 -213v-586h-150z" />
<glyph unicode="n" horiz-adv-x="942" d="M135 0v1010h139v-156q14 35 27.5 56.5t44.5 56t78 53t111 18.5q86 0 149.5 -36.5t91.5 -98.5q31 -66 31 -260v-643h-150v623q0 66 -1 96.5t-9 76.5t-23.5 65.5t-46 35.5t-75.5 16q-217 0 -217 -368v-545h-150z" />
<glyph unicode="o" horiz-adv-x="942" d="M84 504q0 92 14.5 173t52 169t120.5 140t204 52q113 0 193 -50t118.5 -133t55 -166t16.5 -173q0 -545 -389 -545q-113 0 -191.5 48.5t-118.5 131t-57.5 169t-17.5 184.5zM250 504q0 -408 221 -408t221 408q0 410 -221 410t-221 -410z" />
<glyph unicode="p" horiz-adv-x="976" d="M135 -342v1352h135v-176q16 37 29.5 59t44.5 60t80 57.5t115 19.5q162 0 258 -139t96 -373q0 -35 -4 -76t-14.5 -108.5t-35 -124.5t-61.5 -111.5t-98.5 -86t-140.5 -31.5q-70 0 -121 22.5t-77 51t-56 77.5v-473h-150zM285 428q0 -55 2 -85t14 -73t39 -77q66 -88 166 -89 q104 0 162 101q59 104 59 305q0 66 -8 125t-29.5 124.5t-69 105.5t-114.5 40q-113 0 -174 -110q-47 -84 -47 -215v-152z" />
<glyph unicode="q" horiz-adv-x="976" d="M82 483q0 152 34 263.5t91 171t118.5 86t127.5 26.5q59 0 105 -17.5t76 -51t43 -56t30 -59.5q35 92 55 178h80v-1366h-150v492q-29 -47 -49 -75t-78.5 -61.5t-134.5 -33.5q-160 0 -254 133.5t-94 369.5zM248 500q0 -162 43 -267q20 -49 65 -89t111 -40q72 0 131 60 q57 57 75.5 129t18.5 172v117q0 164 -69.5 243.5t-151.5 79.5q-57 0 -101 -30.5t-66.5 -74.5t-36 -104.5t-16.5 -104.5t-3 -91z" />
<glyph unicode="r" horiz-adv-x="522" d="M135 0v1010h133v-211q18 45 32.5 72.5t49.5 75.5t88 71q45 19 101 19q10 0 20 -1v-168q-18 2 -34 2q-103 0 -167 -75q-74 -88 -73 -273v-522h-150z" />
<glyph unicode="s" horiz-adv-x="802" d="M35 260l139 31q37 -195 234 -195q100 0 150 51.5t50 114.5q0 41 -15 69.5t-51 49t-59.5 31t-70.5 24.5q-139 43 -197.5 72t-93.5 80q-49 70 -49 149q0 109 86 205t243 96q86 0 149.5 -27.5t97.5 -75.5t47.5 -79t25.5 -74l-131 -32q-12 29 -20.5 45t-31 50t-59.5 51 t-86 17q-84 0 -129 -47t-45 -108q0 -72 47 -102.5t189 -71.5q66 -20 105.5 -38t94 -51.5t82 -88t27.5 -125.5q0 -123 -94.5 -216.5t-272.5 -93.5q-106 0 -180 32t-110.5 88t-49 89t-22.5 80z" />
<glyph unicode="t" horiz-adv-x="522" d="M6 887v123h146v235l149 15v-250h197v-123h-197v-508q0 -74 1 -105.5t8 -73.5t23.5 -57.5t46.5 -28t77 -12.5q45 0 90 11v-127q-86 -14 -139.5 -14.5t-94.5 11t-68.5 26t-46 48t-27.5 58t-13 78t-5 86t-1 100.5v508h-146z" />
<glyph unicode="u" horiz-adv-x="942" d="M135 371v639h150v-637q0 -66 1 -96.5t9 -72.5t23.5 -60.5t45 -33t74.5 -14.5q53 0 92 21.5t62.5 63.5t38 81t19.5 101.5t6 96.5t1 89v461h150v-1010h-139v150q-18 -37 -31.5 -57.5t-45.5 -54.5t-79 -50.5t-109 -16.5q-170 0 -233 133q-35 70 -35 267z" />
<glyph unicode="v" horiz-adv-x="768" d="M14 1010h152l229 -830l221 830h138l-293 -1010h-154z" />
<glyph unicode="w" horiz-adv-x="1150" d="M25 1010h149l174 -758l172 758h109l186 -766l180 766h125l-248 -1010h-127l-172 711l-161 -711h-133z" />
<glyph unicode="x" horiz-adv-x="698" d="M-27 0l289 530l-262 480h170l180 -342l174 342h154l-250 -465l295 -545h-172l-211 401l-209 -401h-158z" />
<glyph unicode="y" horiz-adv-x="768" d="M39 1010h149l207 -756l223 756h144l-348 -1112q-43 -133 -96.5 -198t-167.5 -65q-27 0 -99 11v123q45 -8 70 -9q82 0 116.5 51.5t86.5 233.5z" />
<glyph unicode="z" horiz-adv-x="663" d="M18 0v123l445 764h-408v123h600v-82l-467 -805h467v-123h-637z" />
<glyph unicode="{" horiz-adv-x="628" d="M84 459v125q80 -2 98.5 50t18.5 195v211q0 55 1 82t6 70t15 64.5t30.5 49t50.5 39t75 18.5t104 3v-106q-90 0 -111.5 -41t-21.5 -179v-211q0 -166 -21.5 -222t-107.5 -85q86 -29 107.5 -85t21.5 -222v-235q0 -137 21.5 -178.5t111.5 -41.5l-2 -106q-82 -6 -137 10.5 t-83 39t-42 74.5t-16 89t-2 113v235q0 61 -1 89t-6.5 66t-17.5 53t-34.5 26.5t-57.5 9.5z" />
<glyph unicode="|" horiz-adv-x="1024" d="M444 -512v2048h138v-2048h-138z" />
<glyph unicode="}" horiz-adv-x="628" d="M145 -240q92 0 113 41t21 179v233q0 168 21.5 224.5t107.5 84.5q-86 27 -107.5 83.5t-21.5 223.5v211q0 137 -20.5 178.5t-113.5 41.5v106q59 4 104.5 -3t75 -18.5t50 -39t31 -49t15.5 -64.5t6 -69.5t1 -82.5v-211q0 -51 1 -75.5t4 -60.5t10.5 -50t19.5 -31.5t32.5 -22.5 t49.5 -5v-125q-80 2 -98.5 -49.5t-18.5 -194.5v-235q0 -55 -1 -82t-6 -70t-15.5 -64.5t-31 -49t-50 -39t-74.5 -18.5t-105 -3v106z" />
<glyph unicode="~" d="M33 594q27 51 44 78.5t51 69.5t80 62.5t103 20.5q78 0 232 -71q137 -68 200 -68q66 0 107 37t82 106l84 -49q-109 -225 -289 -225q-70 0 -287 98q-86 41 -139 41q-37 0 -66.5 -14t-55 -45t-35 -46.5t-29.5 -47.5z" />
<glyph unicode="&#xa1;" horiz-adv-x="698" d="M246 -356l53 1032h100l54 -1032h-207zM256 801v209h186v-209h-186z" />
<glyph unicode="&#xa2;" d="M184 688q0 291 152 418q59 47 151 65v195h103v-195q100 -14 170.5 -81.5t101.5 -229.5l-125 -31q-18 98 -52 150.5t-95 73.5v-711q70 25 100.5 75t46.5 146l125 -26q-37 -274 -272 -316v-235h-103v235q-133 23 -206 121q-97 123 -97 346zM340 692q0 -125 23.5 -201.5 t50 -102.5t73.5 -46v709q-43 -14 -69.5 -37t-52 -105t-25.5 -217z" />
<glyph unicode="&#xa3;" d="M59 0v137h43q154 0 233 93.5t79 218.5q0 82 -23 198h-231v123h211q-31 184 -31 256q0 41 7 84t30.5 96.5t60.5 93t104.5 67.5t155.5 28q197 0 310 -187l-117 -96q-20 39 -36.5 64.5t-60.5 54.5t-102 29q-68 0 -110.5 -32t-58 -82t-19.5 -78t-4 -56q0 -74 37 -242h286 v-123h-270q14 -82 14 -141q0 -84 -16 -149.5t-50 -109.5t-56.5 -64.5t-59.5 -49.5h156q182 0 255.5 30t137.5 136l113 -88q-76 -143 -177.5 -177t-328.5 -34h-482z" />
<glyph unicode="&#xa4;" d="M109 1036l84 84l153 -151q80 55 178 55q96 0 183 -57l151 151l84 -84l-151 -151q53 -86 53 -178q0 -100 -56 -181l152 -151l-84 -84l-151 149q-90 -55 -181 -55q-92 0 -178 53l-151 -149l-84 84l151 149q-57 88 -57 182q0 92 55 183zM334 705q0 -82 56 -137.5t134 -55.5 t134.5 55.5t56.5 135t-56.5 136t-134.5 56.5q-80 0 -135 -56t-55 -134z" />
<glyph unicode="&#xa5;" d="M63 1366h179l293 -659l292 659h158l-272 -555h245v-106h-294l-68 -154h362v-107h-362v-444h-150v444h-333v107h331l-73 154h-258v106h213z" />
<glyph unicode="&#xa6;" horiz-adv-x="1024" d="M442 -358v716h138v-716h-138zM442 666v716h138v-716h-138z" />
<glyph unicode="&#xa7;" d="M129 -53l145 26q45 -207 250 -206q131 0 185.5 64.5t54.5 141.5q0 150 -176 209q-174 59 -234.5 85t-105.5 67q-80 70 -80 190q0 168 170 297q-133 106 -133 269q0 135 93 220t237 85q174 0 270 -97q53 -53 88 -178l-145 -20q-10 35 -19.5 54.5t-34 54t-65.5 53t-99 18.5 q-94 0 -139 -57q-39 -53 -39 -125q0 -51 17.5 -88t60.5 -64.5t77 -42t101 -39.5q55 -20 84 -31.5t76 -39t71.5 -55t44 -74t19.5 -103.5q0 -70 -28.5 -131t-54 -87t-68.5 -64q45 -31 72.5 -54.5t60.5 -86t33 -142.5q0 -154 -111 -254t-291 -100q-326 0 -387 305zM307 567 q0 -94 61.5 -134t278.5 -114q37 31 55.5 51.5t40 62.5t21.5 87q0 109 -131 174q-25 12 -205 80q-37 -33 -59.5 -55.5t-42 -64.5t-19.5 -87z" />
<glyph unicode="&#xa8;" horiz-adv-x="1024" d="M256 1276q0 41 29.5 69.5t75 28.5t75 -28.5t29.5 -69.5q0 -45 -33 -71.5t-71.5 -26.5t-71.5 26.5t-33 71.5zM559 1276q0 41 29.5 69.5t75 28.5t75 -28.5t29.5 -69.5q0 -45 -33 -71.5t-71.5 -26.5t-71.5 27.5t-33 70.5z" />
<glyph unicode="&#xa9;" horiz-adv-x="1605" d="M88 684q0 293 210 502t505 209t505 -209t210 -502q0 -295 -210 -503t-505 -208t-505 208t-210 503zM203 682q0 -250 176 -426t424 -176t424 176t176 426t-176 428t-424 178t-424 -178t-176 -428zM498 680q0 47 4 92t22.5 109.5t50 111.5t93 81t145.5 34q80 0 135.5 -26.5 t85 -77t40.5 -81t22 -77.5l-125 -27q-10 45 -17.5 68.5t-24 56.5t-45 47.5t-69.5 14.5q-182 0 -182 -324q0 -51 6 -97t22.5 -101.5t56.5 -89.5t97 -34q70 0 100.5 40t55.5 147l119 -27q-10 -55 -23.5 -90t-42.5 -80t-83 -68.5t-132 -23.5q-178 0 -258 152q-53 104 -53 270z " />
<glyph unicode="&#xaa;" d="M250 877q0 59 19.5 104t55 70.5t69.5 42t78 22.5t64.5 7t45.5 1q45 0 80 -6q0 35 -2.5 53.5t-12.5 50t-37.5 47t-70.5 15.5q-109 0 -129 -106l-134 20q43 197 273 197q135 0 199 -78q47 -51 47 -211v-197q0 -164 16 -229h-125q-6 47 -10 98q-27 -37 -43.5 -56.5 t-59.5 -39.5t-98 -20q-98 0 -161.5 57.5t-63.5 157.5zM395 877q0 -104 101 -105q166 0 166 242q-49 8 -70 8q-197 0 -197 -145z" />
<glyph unicode="&#xab;" horiz-adv-x="733" d="M92 526l178 287h92l-94 -287l94 -288h-92zM371 526l178 303h92l-94 -303l94 -303h-92z" />
<glyph unicode="&#xac;" d="M104 739v125h838v-465h-119v340h-719z" />
<glyph unicode="&#xad;" horiz-adv-x="593" d="M72 446v123h450v-123h-450z" />
<glyph unicode="&#xae;" d="M115 969q0 172 119.5 291.5t289.5 119.5q168 0 288 -119.5t120 -291.5q0 -170 -121 -289t-287 -119q-168 0 -288.5 119t-120.5 289zM203 969q0 -137 95 -231.5t226 -94.5t225.5 94t94.5 231.5t-93.5 233.5t-226.5 96t-227 -95t-94 -234zM389 752v450h150q61 0 110 -26.5 t49 -96.5q0 -78 -82 -114l91 -213h-89l-77 190h-68v-190h-84zM473 1001h59q82 0 82 78q0 63 -77 64h-64v-142z" />
<glyph unicode="&#xaf;" horiz-adv-x="1024" d="M238 1214v119h546v-119h-546z" />
<glyph unicode="&#x2c9;" horiz-adv-x="1024" d="M238 1214v119h546v-119h-546z" />
<glyph unicode="&#xb0;" d="M209 1079q0 131 92 223.5t223 92.5q129 0 221.5 -92.5t92.5 -223.5q0 -133 -93.5 -224t-222.5 -91t-221 92t-92 223zM348 1079q0 -84 51.5 -142t124.5 -58q72 0 123 58t51 142t-50 142.5t-124 58.5h-2q-74 0 -124 -58.5t-50 -142.5z" />
<glyph unicode="&#xb1;" d="M104 39v125h838v-125h-838zM104 621v124h353v357h133v-357h352v-124h-352v-357h-133v357h-353z" />
<glyph unicode="&#xb2;" horiz-adv-x="698" d="M57 1130q55 252 279 252q117 0 188.5 -67.5t71.5 -179.5q0 -86 -40 -154t-114 -141q-111 -106 -217 -185h371v-108h-537v96q254 209 330 310.5t76 174.5q0 16 -4 35t-15.5 47.5t-42 48t-77.5 19.5q-45 0 -76 -16.5t-45.5 -48t-20.5 -53t-10 -54.5z" />
<glyph unicode="&#xb3;" horiz-adv-x="698" d="M37 745l110 35q8 -29 16.5 -46t28 -47t53.5 -45t79 -15q29 0 57.5 8t60 46t31.5 101q0 143 -188 144h-68v94h68q27 0 42 1t41.5 8t42 19.5t28 39t12.5 63.5q0 63 -35 99t-92 36q-53 0 -88 -25.5t-44.5 -48t-21.5 -63.5l-104 31q51 203 266 202q111 0 181.5 -59t70.5 -168 q0 -121 -123 -174q70 -23 106 -66q45 -57 45 -137q0 -102 -74.5 -175t-213.5 -73q-80 0 -137.5 22.5t-87 64.5t-41 66.5t-21.5 61.5z" />
<glyph unicode="&#xb4;" horiz-adv-x="1024" d="M414 1225l305 254l104 -113l-340 -215z" />
<glyph unicode="&#xb5;" horiz-adv-x="942" d="M135 -342v1352h150v-461v-95q0 -32 4 -89.5t10 -88t20.5 -70.5t34 -59.5t49 -35t68.5 -15.5t68.5 15.5t49 35t34 59.5t20.5 70.5t10 88t4 89.5v95v461h150v-1010h-139v150q-31 -90 -74 -134.5t-123 -44.5t-122 43t-75 136v-492h-139z" />
<glyph unicode="&#x3bc;" horiz-adv-x="942" d="M135 -342v1352h150v-461v-95q0 -32 4 -89.5t10 -88t20.5 -70.5t34 -59.5t49 -35t68.5 -15.5t68.5 15.5t49 35t34 59.5t20.5 70.5t10 88t4 89.5v95v461h150v-1010h-139v150q-31 -90 -74 -134.5t-123 -44.5t-122 43t-75 136v-492h-139z" />
<glyph unicode="&#xb6;" d="M53 985q0 106 41 191.5t103 130.5q86 59 272 59h422v-1708h-119v1591h-104v-1591h-119v950h-80q-66 0 -100.5 2t-86 17.5t-92.5 46.5q-137 98 -137 311z" />
<glyph unicode="&#xb7;" horiz-adv-x="487" d="M152 571v222h186v-222h-186z" />
<glyph unicode="&#x2219;" horiz-adv-x="487" d="M152 571v222h186v-222h-186z" />
<glyph unicode="&#xb8;" horiz-adv-x="1024" d="M369 -336l22 66q76 -27 141 -27q90 0 91 64q0 51 -66 67q-25 6 -117 6l52 160h83l-26 -90h33q74 0 121 -39t47 -98q0 -63 -55.5 -113.5t-147.5 -50.5q-88 0 -178 55z" />
<glyph unicode="&#xb9;" horiz-adv-x="698" d="M170 1094v123q104 55 190 159h91v-735h135v-94h-408v94h144v559q-64 -59 -152 -106z" />
<glyph unicode="&#xba;" d="M246 1028q0 201 94 299q63 68 184 68q104 0 170 -59.5t86.5 -134.5t20.5 -165q0 -373 -281 -372q-80 0 -137 33.5t-85 90t-40 114.5t-12 126zM379 1028q0 -266 145 -266q143 0 144 266q0 268 -144 268q-145 0 -145 -268z" />
<glyph unicode="&#xbb;" horiz-adv-x="733" d="M92 223l94 303l-94 303h92l178 -303l-178 -303h-92zM371 223l94 303l-94 303h92l178 -303l-178 -303h-92z" />
<glyph unicode="&#xbc;" horiz-adv-x="1533" d="M170 1094v123q104 55 190 159h91v-735h135v-94h-408v94h144v559q-64 -59 -152 -106zM365 0l686 1366h118l-684 -1366h-120zM842 193v77l329 566h148v-549h113v-94h-113v-193h-121v193h-356zM969 287h229v432z" />
<glyph unicode="&#xbd;" horiz-adv-x="1533" d="M125 1094v123q104 55 190 159h91v-735h135v-94h-408v94h143v559q-63 -59 -151 -106zM319 0l685 1366h118l-682 -1366h-121zM848 584q55 252 278 252q117 0 188.5 -67t71.5 -181q0 -59 -18 -110.5t-104 -149t-248 -219.5h370v-109h-536v96q236 195 334 316q72 86 71 170 q0 27 -7 55.5t-40.5 61t-91.5 32.5q-43 0 -73.5 -16.5t-46 -49t-20.5 -52t-11 -54.5z" />
<glyph unicode="&#xbe;" horiz-adv-x="1533" d="M72 745l110 35q8 -29 16.5 -46t28 -47t53 -45t78.5 -15q29 0 57.5 8t60.5 46t32 101q0 143 -189 144h-67v94h67q27 0 42.5 1t42 8t42 19.5t27.5 39t12 63.5q0 63 -34.5 99t-92.5 36q-53 0 -87.5 -25.5t-44 -48t-21.5 -63.5l-105 31q51 203 267 202q111 0 181 -59t70 -168 q0 -121 -122 -174q70 -23 106 -66q45 -57 45 -137q0 -102 -74.5 -175t-214.5 -73q-80 0 -137 22.5t-87 64.5t-41 66.5t-21 61.5zM399 0l684 1366h119l-684 -1366h-119zM854 193v77l328 566h147v-549h115v-94h-115v-193h-121v193h-354zM979 287h229v432z" />
<glyph unicode="&#xbf;" horiz-adv-x="1011" d="M139 -18q0 125 51.5 202.5t157.5 161.5q104 82 127 135.5t17 186.5h147q-2 -162 -21.5 -236t-101.5 -137q-88 -68 -123 -100.5t-61.5 -87t-26.5 -127.5q0 -96 50.5 -167t172.5 -71q236 0 260 311l144 -37q-6 -51 -15.5 -90t-37 -101.5t-68.5 -103t-115.5 -72.5 t-173.5 -32q-168 0 -275.5 95.5t-107.5 269.5zM473 801v209h186v-209h-186z" />
<glyph unicode="&#xc0;" horiz-adv-x="1011" d="M33 0l383 1366h196l365 -1366h-168l-100 391h-410l-98 -391h-168zM188 1624l74 139l371 -170l-49 -90zM332 524h342l-170 680z" />
<glyph unicode="&#xc1;" horiz-adv-x="1011" d="M33 0l383 1366h196l365 -1366h-168l-100 391h-410l-98 -391h-168zM332 524h342l-170 680zM391 1593l371 170l74 -139l-396 -121z" />
<glyph unicode="&#xc2;" horiz-adv-x="1011" d="M33 0l383 1366h196l365 -1366h-168l-100 391h-410l-98 -391h-168zM180 1513l332 228l332 -228l-150 -26l-182 106l-182 -106zM332 524h342l-170 680z" />
<glyph unicode="&#xc3;" horiz-adv-x="1011" d="M33 0l383 1366h196l365 -1366h-168l-100 391h-410l-98 -391h-168zM178 1561q78 154 203 153q31 0 54.5 -8t111.5 -49q45 -18 76 -19q33 0 52 16.5t42 51.5l88 -49q-23 -41 -42.5 -66.5t-63.5 -53.5t-97 -28t-137 43q-66 33 -96 33q-53 0 -103 -74zM332 524h342l-170 680z " />
<glyph unicode="&#xc4;" horiz-adv-x="1011" d="M33 0l383 1366h196l365 -1366h-168l-100 391h-410l-98 -391h-168zM248 1610q0 41 30.5 71.5t75.5 30.5t77 -29.5t32 -72.5q0 -47 -35 -75t-72 -28q-39 0 -73.5 28t-34.5 75zM332 524h342l-170 680zM561 1610q0 43 32 72.5t77 29.5t75.5 -29.5t30.5 -72.5q0 -47 -34.5 -75 t-71.5 -28q-39 0 -74 28t-35 75z" />
<glyph unicode="&#xc5;" horiz-adv-x="1011" d="M33 0l383 1366h196l365 -1366h-168l-100 391h-410l-98 -391h-168zM322 1640.5q0 79.5 56 134t134 54.5t134 -55.5t56 -133.5q0 -80 -56 -135t-134 -55t-134 55.5t-56 135zM332 524h342l-170 680zM416 1638q0 -43 29.5 -68.5t66.5 -25.5t66.5 25.5t29.5 68.5 q0 41 -28.5 69t-67.5 28t-67.5 -28t-28.5 -69z" />
<glyph unicode="&#xc6;" horiz-adv-x="1501" d="M-61 0l690 1366h827v-137h-584v-453h459v-137h-459v-502h588v-137h-753v422h-402l-205 -422h-161zM371 559h336v690z" />
<glyph unicode="&#xc7;" d="M90 678q0 61 5 119.5t19.5 147.5t47.5 162t83 141.5t135 107.5t193 39q80 0 144.5 -20.5t108.5 -60.5t74 -79t50.5 -94.5t28.5 -86t18 -75.5l-159 -39q-10 55 -18.5 86t-29 81t-45 77.5t-67.5 49t-100 21.5q-72 0 -128.5 -31.5t-88 -88t-53 -114.5t-30 -132t-10.5 -116 t-2 -91q0 -90 10.5 -173t40 -181.5t96 -157.5t165.5 -59q113 0 168 68.5t92 248.5l151 -37q-43 -227 -136 -318t-271 -102l-23 -73q59 2 102.5 -11.5t62.5 -31t30.5 -42t12.5 -35.5t1 -22q0 -68 -57.5 -118t-151.5 -50q-86 0 -184 58l24 65q88 -27 144 -26q94 0 94 65 q0 53 -68 68q-43 6 -123 6l50 151q-168 25 -250 134q-156 192 -156 569z" />
<glyph unicode="&#xc8;" horiz-adv-x="942" d="M143 0v1366h744v-137h-578v-453h455v-137h-455v-502h594v-137h-760zM188 1624l74 139l371 -170l-49 -90z" />
<glyph unicode="&#xc9;" horiz-adv-x="942" d="M143 0v1366h744v-137h-578v-453h455v-137h-455v-502h594v-137h-760zM391 1593l371 170l74 -139l-396 -121z" />
<glyph unicode="&#xca;" horiz-adv-x="942" d="M143 0v1366h744v-137h-578v-453h455v-137h-455v-502h594v-137h-760zM150 1513l331 228l332 -228l-149 -26l-183 106l-182 -106z" />
<glyph unicode="&#xcb;" horiz-adv-x="942" d="M143 0v1366h744v-137h-578v-453h455v-137h-455v-502h594v-137h-760zM217 1610q0 41 31 71.5t76 30.5t76.5 -29.5t31.5 -72.5q0 -47 -35 -75t-71 -28q-39 0 -74 28t-35 75zM530 1610q0 43 32 72.5t77 29.5t75.5 -29.5t30.5 -72.5q0 -47 -34.5 -75t-71.5 -28q-39 0 -74 28 t-35 75z" />
<glyph unicode="&#xcc;" horiz-adv-x="454" d="M-119 1624l74 139l371 -170l-50 -90zM143 0v1366h166v-1366h-166z" />
<glyph unicode="&#xcd;" horiz-adv-x="454" d="M143 0v1366h166v-1366h-166zM145 1593l371 170l74 -139l-395 -121z" />
<glyph unicode="&#xce;" horiz-adv-x="454" d="M-96 1513l332 228l331 -228l-149 -26l-182 106l-183 -106zM143 0v1366h166v-1366h-166z" />
<glyph unicode="&#xcf;" horiz-adv-x="454" d="M-39 1610q0 41 31 71.5t76 30.5t76.5 -29.5t31.5 -72.5q0 -47 -35 -75t-71 -28q-39 0 -74 28t-35 75zM143 0v1366h166v-1366h-166zM274 1610q0 43 32 72.5t77 29.5t75.5 -29.5t30.5 -72.5q0 -47 -34.5 -75t-71.5 -28q-39 0 -74 28t-35 75z" />
<glyph unicode="&#xd0;" horiz-adv-x="1150" d="M12 639v137h131v590h295q145 0 259 -45t181.5 -114.5t110.5 -163t58.5 -178.5t15.5 -173q0 -139 -38 -261t-111.5 -220t-195.5 -154.5t-280 -56.5h-295v639h-131zM309 137h129q121 0 210 46t140.5 124t75 171t23.5 200q0 252 -116 401.5t-333 149.5h-129v-453h281v-137 h-281v-502z" />
<glyph unicode="&#xd1;" horiz-adv-x="1150" d="M137 0v1366h211l522 -1079v1079h144v-1366h-164l-569 1163v-1163h-144zM250 1561q78 154 203 153q31 0 54 -8t111 -49q45 -18 76 -19q33 0 52.5 16.5t41.5 51.5l89 -49q-23 -41 -42.5 -66.5t-63.5 -53.5t-97 -28t-137 43q-66 33 -97 33q-53 0 -102 -74z" />
<glyph unicode="&#xd2;" horiz-adv-x="1150" d="M90 682q0 125 19.5 235.5t67.5 225t151.5 183.5t251.5 69q117 0 205.5 -46t139 -116t83 -169t43 -189.5t10.5 -192.5q0 -129 -19.5 -240.5t-67.5 -224.5t-148.5 -179.5t-245.5 -66.5q-121 0 -213.5 49.5t-143.5 122t-82.5 173t-41 186.5t-9.5 180zM229 1624l74 139 l371 -170l-49 -90zM262 682q0 -279 78 -426q76 -147 240 -147q154 0 231.5 145t77.5 428t-78 428q-37 72 -91 109.5t-145 37.5q-158 0 -235 -145q-78 -149 -78 -430z" />
<glyph unicode="&#xd3;" horiz-adv-x="1150" d="M90 682q0 125 19.5 235.5t67.5 225t151.5 183.5t251.5 69q117 0 205.5 -46t139 -116t83 -169t43 -189.5t10.5 -192.5q0 -129 -19.5 -240.5t-67.5 -224.5t-148.5 -179.5t-245.5 -66.5q-121 0 -213.5 49.5t-143.5 122t-82.5 173t-41 186.5t-9.5 180zM262 682 q0 -279 78 -426q76 -147 240 -147q154 0 231.5 145t77.5 428t-78 428q-37 72 -91 109.5t-145 37.5q-158 0 -235 -145q-78 -149 -78 -430zM391 1593l371 170l74 -139l-396 -121z" />
<glyph unicode="&#xd4;" horiz-adv-x="1150" d="M90 682q0 125 19.5 235.5t67.5 225t151.5 183.5t251.5 69q117 0 205.5 -46t139 -116t83 -169t43 -189.5t10.5 -192.5q0 -129 -19.5 -240.5t-67.5 -224.5t-148.5 -179.5t-245.5 -66.5q-121 0 -213.5 49.5t-143.5 122t-82.5 173t-41 186.5t-9.5 180zM242 1513l331 228 l332 -228l-149 -26l-183 106l-182 -106zM262 682q0 -279 78 -426q76 -147 240 -147q154 0 231.5 145t77.5 428t-78 428q-37 72 -91 109.5t-145 37.5q-158 0 -235 -145q-78 -149 -78 -430z" />
<glyph unicode="&#xd5;" horiz-adv-x="1150" d="M90 682q0 125 19.5 235.5t67.5 225t151.5 183.5t251.5 69q117 0 205.5 -46t139 -116t83 -169t43 -189.5t10.5 -192.5q0 -129 -19.5 -240.5t-67.5 -224.5t-148.5 -179.5t-245.5 -66.5q-121 0 -213.5 49.5t-143.5 122t-82.5 173t-41 186.5t-9.5 180zM260 1561 q78 154 203 153q31 0 54.5 -8t111.5 -49q45 -18 76 -19q33 0 52 16.5t42 51.5l88 -49q-23 -41 -42.5 -66.5t-63.5 -53.5t-97 -28t-137 43q-66 33 -96 33q-53 0 -103 -74zM262 682q0 -279 78 -426q76 -147 240 -147q154 0 231.5 145t77.5 428t-78 428q-37 72 -91 109.5 t-145 37.5q-158 0 -235 -145q-78 -149 -78 -430z" />
<glyph unicode="&#xd6;" horiz-adv-x="1150" d="M90 682q0 125 19.5 235.5t67.5 225t151.5 183.5t251.5 69q117 0 205.5 -46t139 -116t83 -169t43 -189.5t10.5 -192.5q0 -129 -19.5 -240.5t-67.5 -224.5t-148.5 -179.5t-245.5 -66.5q-121 0 -213.5 49.5t-143.5 122t-82.5 173t-41 186.5t-9.5 180zM262 682 q0 -279 78 -426q76 -147 240 -147q154 0 231.5 145t77.5 428t-78 428q-37 72 -91 109.5t-145 37.5q-158 0 -235 -145q-78 -149 -78 -430zM309 1610q0 41 31 71.5t76 30.5t76.5 -29.5t31.5 -72.5q0 -47 -34.5 -75t-71.5 -28q-39 0 -74 28t-35 75zM623 1610q0 43 31.5 72.5 t76.5 29.5t76 -29.5t31 -72.5q0 -47 -35 -75t-72 -28q-39 0 -73.5 28t-34.5 75z" />
<glyph unicode="&#xd7;" d="M168 420l262 262l-262 262l94 94l262 -262l262 262l93 -94l-263 -262l263 -262l-93 -92l-262 262l-262 -262z" />
<glyph unicode="&#xd8;" horiz-adv-x="1150" d="M98 682q0 94 9.5 179t40 187.5t81 175t140.5 122t209 49.5q147 0 262 -80l63 125h119l-102 -207q133 -197 133 -551q0 -94 -9.5 -179t-39 -186.5t-78.5 -174t-137.5 -122t-206.5 -49.5q-143 0 -258 74l-66 -129h-119l105 207q-146 199 -146 559zM258 682q0 -262 66 -426 l440 944q-76 63 -189 64q-162 0 -237 -146q-80 -151 -80 -436zM397 158q76 -55 181 -56q158 0 237 148q78 145 78 432q0 256 -57 412z" />
<glyph unicode="&#xd9;" horiz-adv-x="1116" d="M143 463v903h166v-903q0 -51 1 -77t5 -71t13.5 -68.5t28 -53t44 -45t66.5 -26.5t92 -11q74 0 125 22.5t76.5 51t39 85t15.5 93t2 108.5v895h156v-887q0 -61 -1 -94t-9.5 -94.5t-22.5 -98t-45 -84t-75 -74t-111.5 -45t-155.5 -18.5q-96 0 -169 20.5t-116 62.5t-69.5 84 t-37.5 107.5t-14.5 108.5t-3.5 109zM188 1624l74 139l371 -170l-49 -90z" />
<glyph unicode="&#xda;" horiz-adv-x="1116" d="M143 463v903h166v-903q0 -51 1 -77t5 -71t13.5 -68.5t28 -53t44 -45t66.5 -26.5t92 -11q74 0 125 22.5t76.5 51t39 85t15.5 93t2 108.5v895h156v-887q0 -61 -1 -94t-9.5 -94.5t-22.5 -98t-45 -84t-75 -74t-111.5 -45t-155.5 -18.5q-96 0 -169 20.5t-116 62.5t-69.5 84 t-37.5 107.5t-14.5 108.5t-3.5 109zM391 1593l371 170l74 -139l-396 -121z" />
<glyph unicode="&#xdb;" horiz-adv-x="1116" d="M143 463v903h166v-903q0 -51 1 -77t5 -71t13.5 -68.5t28 -53t44 -45t66.5 -26.5t92 -11q74 0 125 22.5t76.5 51t39 85t15.5 93t2 108.5v895h156v-887q0 -61 -1 -94t-9.5 -94.5t-22.5 -98t-45 -84t-75 -74t-111.5 -45t-155.5 -18.5q-96 0 -169 20.5t-116 62.5t-69.5 84 t-37.5 107.5t-14.5 108.5t-3.5 109zM180 1513l332 228l332 -228l-150 -26l-182 106l-182 -106z" />
<glyph unicode="&#xdc;" horiz-adv-x="1116" d="M143 463v903h166v-903q0 -51 1 -77t5 -71t13.5 -68.5t28 -53t44 -45t66.5 -26.5t92 -11q74 0 125 22.5t76.5 51t39 85t15.5 93t2 108.5v895h156v-887q0 -61 -1 -94t-9.5 -94.5t-22.5 -98t-45 -84t-75 -74t-111.5 -45t-155.5 -18.5q-96 0 -169 20.5t-116 62.5t-69.5 84 t-37.5 107.5t-14.5 108.5t-3.5 109zM299 1610q0 41 30.5 71.5t76 30.5t77 -29.5t31.5 -72.5q0 -47 -35 -75t-71 -28q-39 0 -74 28t-35 75zM612 1610q0 43 32 72.5t77 29.5t75.5 -29.5t30.5 -72.5q0 -47 -34.5 -75t-71.5 -28q-39 0 -74 28t-35 75z" />
<glyph unicode="&#xdd;" horiz-adv-x="802" d="M-59 1366h176l299 -629l295 629h151l-377 -788v-578h-166v578zM340 1593l371 170l73 -139l-395 -121z" />
<glyph unicode="&#xde;" horiz-adv-x="976" d="M143 0v1366h166v-233h127q147 0 239.5 -27t151.5 -92q106 -117 107 -293q0 -104 -43 -193.5t-121 -138.5q-102 -66 -334 -65h-127v-324h-166zM309 461h127q59 0 91 2t84.5 15.5t80 39t49 77.5t21.5 128q0 121 -62 197q-41 51 -93 63t-171 12h-127v-534z" />
<glyph unicode="&#xdf;" horiz-adv-x="976" d="M10 793v122h125q-2 80 0 125t19.5 115t52.5 123q41 59 108.5 94t110.5 42t82 7q133 0 228 -79.5t95 -204.5q0 -229 -348 -306q8 -20 16.5 -30t40 -29.5t99.5 -52.5q61 -31 99 -54.5t94.5 -70.5t85 -111.5t28.5 -144.5q0 -57 -17.5 -116.5t-55 -118t-111.5 -95.5t-172 -37 q-76 0 -180 35l39 119q80 -29 147 -29q86 0 141.5 62.5t55.5 167.5q0 53 -13.5 93t-50.5 72.5t-64.5 50t-93.5 52.5q-113 59 -157.5 108.5t-44.5 116.5q0 41 16 86q59 12 96 23.5t91.5 37t82 66.5t27.5 96q0 84 -52 131.5t-132 47.5q-115 0 -172 -103q-41 -72 -41 -289v-991 h-150v869h-125z" />
<glyph unicode="&#xe0;" horiz-adv-x="942" d="M82 274q0 133 76 226q109 129 366 129q59 0 133 -8v43q0 250 -188 249q-55 0 -95 -17t-61.5 -48t-29 -49.5t-15.5 -44.5l-147 24q31 150 164 217q86 43 194 43q180 0 266 -106q29 -35 43.5 -92.5t16.5 -99.5t2 -119v-297q0 -233 18 -324h-143q-12 88 -12 178 q-23 -43 -39.5 -68.5t-51 -62.5t-85 -56.5t-115.5 -19.5q-133 0 -215 82t-82 221zM160 1366l104 113l305 -254l-69 -74zM240 270q0 -174 168 -174q133 0 206 129q35 63 42.5 123t0.5 154q-68 12 -116 12q-301 0 -301 -244z" />
<glyph unicode="&#xe1;" horiz-adv-x="942" d="M82 274q0 133 76 226q109 129 366 129q59 0 133 -8v43q0 250 -188 249q-55 0 -95 -17t-61.5 -48t-29 -49.5t-15.5 -44.5l-147 24q31 150 164 217q86 43 194 43q180 0 266 -106q29 -35 43.5 -92.5t16.5 -99.5t2 -119v-297q0 -233 18 -324h-143q-12 88 -12 178 q-23 -43 -39.5 -68.5t-51 -62.5t-85 -56.5t-115.5 -19.5q-133 0 -215 82t-82 221zM240 270q0 -174 168 -174q133 0 206 129q35 63 42.5 123t0.5 154q-68 12 -116 12q-301 0 -301 -244zM373 1225l305 254l104 -113l-340 -215z" />
<glyph unicode="&#xe2;" horiz-adv-x="942" d="M82 274q0 133 76 226q109 129 366 129q59 0 133 -8v43q0 250 -188 249q-55 0 -95 -17t-61.5 -48t-29 -49.5t-15.5 -44.5l-147 24q31 150 164 217q86 43 194 43q180 0 266 -106q29 -35 43.5 -92.5t16.5 -99.5t2 -119v-297q0 -233 18 -324h-143q-12 88 -12 178 q-23 -43 -39.5 -68.5t-51 -62.5t-85 -56.5t-115.5 -19.5q-133 0 -215 82t-82 221zM150 1192l321 242l322 -242l-146 -27l-176 125l-176 -125zM240 270q0 -174 168 -174q133 0 206 129q35 63 42.5 123t0.5 154q-68 12 -116 12q-301 0 -301 -244z" />
<glyph unicode="&#xe3;" horiz-adv-x="942" d="M82 274q0 133 76 226q109 129 366 129q59 0 133 -8v43q0 250 -188 249q-55 0 -95 -17t-61.5 -48t-29 -49.5t-15.5 -44.5l-147 24q31 150 164 217q86 43 194 43q180 0 266 -106q29 -35 43.5 -92.5t16.5 -99.5t2 -119v-297q0 -233 18 -324h-143q-12 88 -12 178 q-23 -43 -39.5 -68.5t-51 -62.5t-85 -56.5t-115.5 -19.5q-133 0 -215 82t-82 221zM178 1237q76 160 189 160q53 0 127 -51q63 -45 100 -46q51 0 86 78l84 -49q-18 -33 -30.5 -52.5t-36 -47t-53.5 -40.5t-66 -13q-53 0 -132 53q-59 43 -90 43q-53 0 -94 -84zM240 270 q0 -174 168 -174q133 0 206 129q35 63 42.5 123t0.5 154q-68 12 -116 12q-301 0 -301 -244z" />
<glyph unicode="&#xe4;" horiz-adv-x="942" d="M82 274q0 133 76 226q109 129 366 129q59 0 133 -8v43q0 250 -188 249q-55 0 -95 -17t-61.5 -48t-29 -49.5t-15.5 -44.5l-147 24q31 150 164 217q86 43 194 43q180 0 266 -106q29 -35 43.5 -92.5t16.5 -99.5t2 -119v-297q0 -233 18 -324h-143q-12 88 -12 178 q-23 -43 -39.5 -68.5t-51 -62.5t-85 -56.5t-115.5 -19.5q-133 0 -215 82t-82 221zM215 1276q0 41 29.5 69.5t75 28.5t75 -28.5t29.5 -69.5q0 -45 -33 -71.5t-71.5 -26.5t-71.5 26.5t-33 71.5zM240 270q0 -174 168 -174q133 0 206 129q35 63 42.5 123t0.5 154q-68 12 -116 12 q-301 0 -301 -244zM518 1276q0 41 30 69.5t75 28.5t74.5 -28.5t29.5 -69.5q0 -45 -32.5 -71.5t-71.5 -26.5t-72 27.5t-33 70.5z" />
<glyph unicode="&#xe5;" horiz-adv-x="942" d="M82 274q0 133 76 226q109 129 366 129q59 0 133 -8v43q0 250 -188 249q-55 0 -95 -17t-61.5 -48t-29 -49.5t-15.5 -44.5l-147 24q31 150 164 217q86 43 194 43q180 0 266 -106q29 -35 43.5 -92.5t16.5 -99.5t2 -119v-297q0 -233 18 -324h-143q-12 88 -12 178 q-23 -43 -39.5 -68.5t-51 -62.5t-85 -56.5t-115.5 -19.5q-133 0 -215 82t-82 221zM240 270q0 -174 168 -174q133 0 206 129q35 63 42.5 123t0.5 154q-68 12 -116 12q-301 0 -301 -244zM311 1300q0 80 55.5 133.5t129 53.5t128 -53.5t54.5 -133.5q0 -84 -57.5 -133t-125 -49 t-126 49t-58.5 133zM401 1303q0 -43 29 -69t66 -26q35 0 63.5 26t28.5 69q0 41 -28 67.5t-64 26.5q-39 0 -67 -26.5t-28 -67.5z" />
<glyph unicode="&#xe6;" horiz-adv-x="1466" d="M82 274q0 133 76 226q109 129 364 129q57 0 131 -8v75q0 29 -9 75t-27.5 72.5t-55.5 48t-90 21.5q-160 0 -199 -159l-147 24q14 74 55 127t82 78t94.5 38t76 15t44.5 2q197 0 287 -141q102 141 272 141q352 0 361 -553h-596q0 -389 235 -389q51 0 88 18.5t60.5 55.5 t34 62.5t22.5 66.5l141 -33q-80 -295 -354 -295q-211 0 -313 205q-25 -41 -43.5 -64.5t-58.5 -62.5t-98 -58.5t-132 -19.5q-152 0 -226.5 88t-74.5 215zM240 270q0 -174 168 -174q39 0 78.5 16.5t82.5 56.5t68 126t16 207q-68 12 -114 12q-299 0 -299 -244zM809 608h418 q0 131 -48.5 218t-158.5 87q-184 0 -211 -305z" />
<glyph unicode="&#xe7;" horiz-adv-x="837" d="M84 492q0 547 377 546q76 0 133 -24.5t90 -55t57.5 -86t31.5 -87t20 -89.5l-152 -30q-8 49 -12 75.5t-17.5 65.5t-31 57.5t-49 33.5t-74.5 15q-111 0 -159 -98t-48 -344q0 -41 1 -69.5t7 -79t19.5 -84t36 -69.5t60.5 -54.5t87 -18.5q53 0 90 22.5t54.5 67.5t23.5 76 t12 82l152 -20q-27 -170 -89.5 -253t-230.5 -100l-18 -61q57 2 98 -10.5t59.5 -28.5t29.5 -41t12 -36t1 -21q0 -66 -55 -115t-147 -49q-86 0 -177 55l23 66q76 -27 139 -27q90 0 90 64q0 53 -65 67q-31 6 -117 6l45 135q-307 48 -307 517z" />
<glyph unicode="&#xe8;" horiz-adv-x="907" d="M84 489q0 270 111.5 409.5t281.5 139.5q352 0 361 -553h-596q0 -389 235 -389q51 0 88 18.5t60.5 55.5t34 62.5t22.5 66.5l141 -33q-80 -295 -354 -295q-201 0 -293 147.5t-92 370.5zM143 1366l105 113l305 -254l-70 -74zM250 608h418q0 131 -48.5 218t-158.5 87 q-184 0 -211 -305z" />
<glyph unicode="&#xe9;" horiz-adv-x="907" d="M84 489q0 270 111.5 409.5t281.5 139.5q352 0 361 -553h-596q0 -389 235 -389q51 0 88 18.5t60.5 55.5t34 62.5t22.5 66.5l141 -33q-80 -295 -354 -295q-201 0 -293 147.5t-92 370.5zM250 608h418q0 131 -48.5 218t-158.5 87q-184 0 -211 -305zM356 1225l306 254 l104 -113l-340 -215z" />
<glyph unicode="&#xea;" horiz-adv-x="907" d="M84 489q0 270 111.5 409.5t281.5 139.5q352 0 361 -553h-596q0 -389 235 -389q51 0 88 18.5t60.5 55.5t34 62.5t22.5 66.5l141 -33q-80 -295 -354 -295q-201 0 -293 147.5t-92 370.5zM133 1192l322 242l321 -242l-145 -27l-176 125l-176 -125zM250 608h418 q0 131 -48.5 218t-158.5 87q-184 0 -211 -305z" />
<glyph unicode="&#xeb;" horiz-adv-x="907" d="M84 489q0 270 111.5 409.5t281.5 139.5q352 0 361 -553h-596q0 -389 235 -389q51 0 88 18.5t60.5 55.5t34 62.5t22.5 66.5l141 -33q-80 -295 -354 -295q-201 0 -293 147.5t-92 370.5zM199 1276q0 41 29.5 69.5t74.5 28.5t75 -28.5t30 -69.5q0 -45 -33 -71.5t-72 -26.5 t-71.5 26.5t-32.5 71.5zM250 608h418q0 131 -48.5 218t-158.5 87q-184 0 -211 -305zM502 1276q0 41 29.5 69.5t74.5 28.5t75 -28.5t30 -69.5q0 -45 -33 -71.5t-72 -26.5t-71.5 27.5t-32.5 70.5z" />
<glyph unicode="&#xec;" horiz-adv-x="417" d="M-102 1366l104 113l305 -254l-69 -74zM135 0v1010h150v-1010h-150z" />
<glyph unicode="&#xed;" horiz-adv-x="417" d="M111 1225l305 254l104 -113l-340 -215zM135 0v1010h150v-1010h-150z" />
<glyph unicode="&#xee;" horiz-adv-x="417" d="M-113 1192l322 242l321 -242l-145 -27l-176 125l-176 -125zM135 0v1010h150v-1010h-150z" />
<glyph unicode="&#xef;" horiz-adv-x="417" d="M-47 1276q0 41 29.5 69.5t74.5 28.5t75 -28.5t30 -69.5q0 -45 -33 -71.5t-72 -26.5t-71.5 26.5t-32.5 71.5zM135 0v1010h150v-1010h-150zM256 1276q0 41 29.5 69.5t75 28.5t75 -28.5t29.5 -69.5q0 -45 -33 -71.5t-71.5 -26.5t-71.5 27.5t-33 70.5z" />
<glyph unicode="&#xf0;" horiz-adv-x="907" d="M66 504q0 162 37.5 276.5t97 165.5t112 71.5t101.5 20.5q80 0 149 -57q-35 88 -106 211l-242 -127l-63 111l239 124q-27 41 -53 80l127 68l55 -80l236 125l63 -111l-231 -120q254 -418 254 -768q0 -63 -7.5 -124t-31 -136.5t-64.5 -131t-115.5 -93.5t-172.5 -38 q-113 0 -193 49.5t-120 132.5t-56 169t-16 182zM231 504q0 -408 224 -408q221 0 221 408q0 410 -221 409q-224 1 -224 -409z" />
<glyph unicode="&#xf1;" horiz-adv-x="942" d="M135 0v1010h139v-156q14 35 27.5 56.5t44.5 56t78 53t111 18.5q86 0 149.5 -36.5t91.5 -98.5q31 -66 31 -260v-643h-150v623q0 66 -1 96.5t-9 76.5t-23.5 65.5t-46 35.5t-75.5 16q-217 0 -217 -368v-545h-150zM178 1237q76 160 189 160q53 0 127 -51q63 -45 100 -46 q51 0 86 78l84 -49q-18 -33 -30.5 -52.5t-36 -47t-53.5 -40.5t-66 -13q-53 0 -132 53q-59 43 -90 43q-53 0 -94 -84z" />
<glyph unicode="&#xf2;" horiz-adv-x="942" d="M84 504q0 92 14.5 173t52 169t120.5 140t204 52q113 0 193 -50t118.5 -133t55 -166t16.5 -173q0 -545 -389 -545q-113 0 -191.5 48.5t-118.5 131t-57.5 169t-17.5 184.5zM160 1366l104 113l305 -254l-69 -74zM250 504q0 -408 221 -408t221 408q0 410 -221 410t-221 -410z " />
<glyph unicode="&#xf3;" horiz-adv-x="942" d="M84 504q0 92 14.5 173t52 169t120.5 140t204 52q113 0 193 -50t118.5 -133t55 -166t16.5 -173q0 -545 -389 -545q-113 0 -191.5 48.5t-118.5 131t-57.5 169t-17.5 184.5zM250 504q0 -408 221 -408t221 408q0 410 -221 410t-221 -410zM373 1225l305 254l104 -113 l-340 -215z" />
<glyph unicode="&#xf4;" horiz-adv-x="942" d="M84 504q0 92 14.5 173t52 169t120.5 140t204 52q113 0 193 -50t118.5 -133t55 -166t16.5 -173q0 -545 -389 -545q-113 0 -191.5 48.5t-118.5 131t-57.5 169t-17.5 184.5zM150 1192l321 242l322 -242l-146 -27l-176 125l-176 -125zM250 504q0 -408 221 -408t221 408 q0 410 -221 410t-221 -410z" />
<glyph unicode="&#xf5;" horiz-adv-x="942" d="M84 504q0 92 14.5 173t52 169t120.5 140t204 52q113 0 193 -50t118.5 -133t55 -166t16.5 -173q0 -545 -389 -545q-113 0 -191.5 48.5t-118.5 131t-57.5 169t-17.5 184.5zM178 1237q76 160 189 160q53 0 127 -51q63 -45 100 -46q51 0 86 78l84 -49q-18 -33 -30.5 -52.5 t-36 -47t-53.5 -40.5t-66 -13q-53 0 -132 53q-59 43 -90 43q-53 0 -94 -84zM250 504q0 -408 221 -408t221 408q0 410 -221 410t-221 -410z" />
<glyph unicode="&#xf6;" horiz-adv-x="942" d="M84 504q0 92 14.5 173t52 169t120.5 140t204 52q113 0 193 -50t118.5 -133t55 -166t16.5 -173q0 -545 -389 -545q-113 0 -191.5 48.5t-118.5 131t-57.5 169t-17.5 184.5zM215 1276q0 41 29.5 69.5t75 28.5t75 -28.5t29.5 -69.5q0 -45 -33 -71.5t-71.5 -26.5t-71.5 26.5 t-33 71.5zM250 504q0 -408 221 -408t221 408q0 410 -221 410t-221 -410zM518 1276q0 41 30 69.5t75 28.5t74.5 -28.5t29.5 -69.5q0 -45 -32.5 -71.5t-71.5 -26.5t-72 27.5t-33 70.5z" />
<glyph unicode="&#xf7;" d="M104 621v124h838v-124h-838zM438 319v191h170v-191h-170zM438 856v191h170v-191h-170z" />
<glyph unicode="&#xf8;" horiz-adv-x="942" d="M84 506q0 66 7 127t30.5 139t63.5 133.5t113 94t169 38.5q117 0 205 -53l51 102h111l-86 -169q111 -147 110 -404q0 -543 -391 -543q-90 0 -180 43l-58 -112h-108l88 176q-125 154 -125 428zM236 508q0 -178 49 -303l317 678q-49 35 -127 35q-239 0 -239 -410zM356 121 q41 -29 107 -29q244 0 244 414q0 164 -37 285z" />
<glyph unicode="&#xf9;" horiz-adv-x="942" d="M135 371v639h150v-637q0 -66 1 -96.5t9 -72.5t23.5 -60.5t45 -33t74.5 -14.5q53 0 92 21.5t62.5 63.5t38 81t19.5 101.5t6 96.5t1 89v461h150v-1010h-139v150q-18 -37 -31.5 -57.5t-45.5 -54.5t-79 -50.5t-109 -16.5q-170 0 -233 133q-35 70 -35 267zM160 1366l104 113 l305 -254l-69 -74z" />
<glyph unicode="&#xfa;" horiz-adv-x="942" d="M135 371v639h150v-637q0 -66 1 -96.5t9 -72.5t23.5 -60.5t45 -33t74.5 -14.5q53 0 92 21.5t62.5 63.5t38 81t19.5 101.5t6 96.5t1 89v461h150v-1010h-139v150q-18 -37 -31.5 -57.5t-45.5 -54.5t-79 -50.5t-109 -16.5q-170 0 -233 133q-35 70 -35 267zM373 1225l305 254 l104 -113l-340 -215z" />
<glyph unicode="&#xfb;" horiz-adv-x="942" d="M135 371v639h150v-637q0 -66 1 -96.5t9 -72.5t23.5 -60.5t45 -33t74.5 -14.5q53 0 92 21.5t62.5 63.5t38 81t19.5 101.5t6 96.5t1 89v461h150v-1010h-139v150q-18 -37 -31.5 -57.5t-45.5 -54.5t-79 -50.5t-109 -16.5q-170 0 -233 133q-35 70 -35 267zM150 1192l321 242 l322 -242l-146 -27l-176 125l-176 -125z" />
<glyph unicode="&#xfc;" horiz-adv-x="942" d="M135 371v639h150v-637q0 -66 1 -96.5t9 -72.5t23.5 -60.5t45 -33t74.5 -14.5q53 0 92 21.5t62.5 63.5t38 81t19.5 101.5t6 96.5t1 89v461h150v-1010h-139v150q-18 -37 -31.5 -57.5t-45.5 -54.5t-79 -50.5t-109 -16.5q-170 0 -233 133q-35 70 -35 267zM215 1276 q0 41 29.5 69.5t75 28.5t75 -28.5t29.5 -69.5q0 -45 -33 -71.5t-71.5 -26.5t-71.5 26.5t-33 71.5zM518 1276q0 41 30 69.5t75 28.5t74.5 -28.5t29.5 -69.5q0 -45 -32.5 -71.5t-71.5 -26.5t-72 27.5t-33 70.5z" />
<glyph unicode="&#xfd;" horiz-adv-x="768" d="M39 1010h149l207 -756l223 756h144l-348 -1112q-43 -133 -96.5 -198t-167.5 -65q-27 0 -99 11v123q45 -8 70 -9q82 0 116.5 51.5t86.5 233.5zM287 1225l305 254l104 -113l-340 -215z" />
<glyph unicode="&#xfe;" horiz-adv-x="976" d="M135 -342v1708h150v-532q18 41 31.5 64.5t43 59t75.5 54t106 18.5q158 0 255 -138t97 -374q0 -35 -4 -76t-14.5 -108.5t-35 -124.5t-61.5 -111.5t-98.5 -86t-140.5 -31.5q-70 0 -121 22.5t-77 51t-56 77.5v-473h-150zM285 428q0 -55 2 -85t14 -73t39 -77q66 -88 166 -89 q104 0 162 101q59 104 59 305q0 182 -56.5 288.5t-158.5 106.5q-72 0 -127 -61.5t-77.5 -134t-22.5 -129.5v-152z" />
<glyph unicode="&#xff;" horiz-adv-x="768" d="M39 1010h149l207 -756l223 756h144l-348 -1112q-43 -133 -96.5 -198t-167.5 -65q-27 0 -99 11v123q45 -8 70 -9q82 0 116.5 51.5t86.5 233.5zM129 1276q0 41 29.5 69.5t75 28.5t75 -28.5t29.5 -69.5q0 -45 -33 -71.5t-71.5 -26.5t-71.5 26.5t-33 71.5zM432 1276 q0 41 30 69.5t75 28.5t74.5 -28.5t29.5 -69.5q0 -45 -33 -71.5t-71.5 -26.5t-71.5 27.5t-33 70.5z" />
<glyph unicode="&#x152;" horiz-adv-x="1675" d="M90 672q0 45 1 85t11.5 117.5t27.5 141t52 137.5t84 124t126 84t173 34q72 0 127.5 -16.5t93 -48.5t54 -52.5t39.5 -54.5v143h747v-137h-590v-453h465v-137h-465v-502h598v-137h-755v164q-25 -41 -43.5 -64.5t-57.5 -58.5t-96 -52.5t-131 -17.5q-94 0 -170 34t-123 84 t-82 124t-50 134.5t-24.5 138t-10.5 111.5t-1 75zM262 653q0 -283 79 -413.5t241 -130.5q221 0 297 253v678q-70 217 -297 217q-152 0 -222 -112q-98 -158 -98 -492z" />
<glyph unicode="&#x153;" horiz-adv-x="1501" d="M84 504q0 55 4 106.5t25.5 135t59.5 143t112.5 104.5t177.5 45q90 0 160.5 -36.5t94 -67.5t50.5 -74q33 47 58.5 77t93 65.5t149.5 35.5q106 0 180 -49t109 -119q31 -63 47 -138t19 -117t6 -130h-588q0 -389 231 -389q49 0 86 18.5t59.5 55.5t34 62.5t23.5 66.5l139 -33 q-74 -295 -350 -295q-207 0 -311 183q-100 -182 -293 -183q-82 0 -147.5 28t-104.5 77t-65.5 102t-39 118.5t-16.5 113t-4 94.5zM250 504q0 -408 217 -408t217 408q0 410 -217 410t-217 -410zM850 608h412q-4 305 -205 305q-178 0 -207 -305z" />
<glyph unicode="&#x178;" horiz-adv-x="802" d="M-59 1366h176l299 -629l295 629h151l-377 -788v-578h-166v578zM156 1610q0 41 30.5 71.5t75.5 30.5t77 -29.5t32 -72.5q0 -47 -35 -75t-72 -28q-39 0 -73.5 28t-34.5 75zM469 1610q0 43 31.5 72.5t77 29.5t76 -29.5t30.5 -72.5q0 -47 -35 -75t-71 -28q-39 0 -74 28 t-35 75z" />
<glyph unicode="&#x2c6;" horiz-adv-x="1024" d="M190 1192l322 242l322 -242l-146 -27l-176 125l-176 -125z" />
<glyph unicode="&#x2dc;" horiz-adv-x="1024" d="M219 1237q76 160 189 160q53 0 127 -51q63 -45 100 -46q51 0 86 78l84 -49q-18 -33 -30.5 -52.5t-36 -47t-53.5 -40.5t-67 -13q-53 0 -131 53q-59 43 -90 43q-53 0 -94 -84z" />
<glyph unicode="&#x2000;" horiz-adv-x="913" />
<glyph unicode="&#x2001;" horiz-adv-x="1828" />
<glyph unicode="&#x2002;" horiz-adv-x="913" />
<glyph unicode="&#x2003;" horiz-adv-x="1828" />
<glyph unicode="&#x2004;" horiz-adv-x="608" />
<glyph unicode="&#x2005;" horiz-adv-x="456" />
<glyph unicode="&#x2006;" horiz-adv-x="303" />
<glyph unicode="&#x2007;" horiz-adv-x="303" />
<glyph unicode="&#x2008;" horiz-adv-x="227" />
<glyph unicode="&#x2009;" horiz-adv-x="364" />
<glyph unicode="&#x200a;" horiz-adv-x="100" />
<glyph unicode="&#x2010;" horiz-adv-x="593" d="M72 446v123h450v-123h-450z" />
<glyph unicode="&#x2011;" horiz-adv-x="593" d="M72 446v123h450v-123h-450z" />
<glyph unicode="&#x2012;" horiz-adv-x="593" d="M72 446v123h450v-123h-450z" />
<glyph unicode="&#x2013;" horiz-adv-x="802" d="M63 446v123h676v-123h-676z" />
<glyph unicode="&#x2014;" horiz-adv-x="1255" d="M63 446v123h1129v-123h-1129z" />
<glyph unicode="&#x2018;" horiz-adv-x="417" d="M98 940v201l133 248h91l-121 -236h84v-213h-187z" />
<glyph unicode="&#x2019;" horiz-adv-x="417" d="M98 915l121 236h-84v215h187v-203l-134 -248h-90z" />
<glyph unicode="&#x201a;" horiz-adv-x="417" d="M98 -236l121 236h-84v215h187v-203l-134 -248h-90z" />
<glyph unicode="&#x201c;" horiz-adv-x="698" d="M98 940v201l133 248h91l-121 -236h84v-213h-187zM377 940v201l133 248h90l-121 -236h84v-213h-186z" />
<glyph unicode="&#x201d;" horiz-adv-x="698" d="M98 915l121 236h-84v215h187v-203l-134 -248h-90zM377 915l121 236h-84v215h186v-203l-133 -248h-90z" />
<glyph unicode="&#x201e;" horiz-adv-x="698" d="M98 -236l121 236h-84v215h187v-203l-134 -248h-90zM377 -236l121 236h-84v215h186v-203l-133 -248h-90z" />
<glyph unicode="&#x2022;" horiz-adv-x="202" d="M0 575v240h203v-240h-203z" />
<glyph unicode="&#x2026;" horiz-adv-x="1464" d="M152 0v221h186v-221h-186zM639 0v221h186v-221h-186zM1126 0v221h187v-221h-187z" />
<glyph unicode="&#x202f;" horiz-adv-x="364" />
<glyph unicode="&#x2039;" horiz-adv-x="452" d="M92 526l178 303h92l-94 -303l94 -303h-92z" />
<glyph unicode="&#x203a;" horiz-adv-x="452" d="M92 223l94 303l-94 303h92l178 -303l-178 -303h-92z" />
<glyph unicode="&#x205f;" horiz-adv-x="456" />
<glyph unicode="&#x20ac;" d="M51 494l39 118h88q-2 18 -2 76q0 51 2 74h-127l39 117h98q29 242 146 379t330 137q199 0 299 -84v-150q-102 98 -281 99q-154 0 -239 -103.5t-103 -277.5h541l-39 -117h-516q0 -10 -1 -36t-1 -38q0 -16 1 -41.5t1 -34.5h465l-39 -118h-412q23 -188 110 -286.5t234 -98.5 q172 0 279 96v-152q-92 -80 -299 -80q-412 0 -474 521h-139z" />
<glyph unicode="&#x2122;" horiz-adv-x="1466" d="M49 1266v100h490v-100h-181v-678h-129v678h-180zM598 588v778h186l170 -627l172 625h183v-776h-119v657l-184 -657h-115l-180 659v-659h-113z" />
<glyph unicode="&#xe000;" horiz-adv-x="1010" d="M0 1010h1010v-1010h-1010v1010z" />
<glyph unicode="&#xfb01;" horiz-adv-x="907" d="M18 887v123h146l3 89q1 30 7 78t16.5 73.5t30 57t47 48t70.5 28t98 11.5q31 0 88 -9v-122q-20 6 -47 6q-109 0 -136.5 -52.5t-27.5 -207.5h185v-123h-185v-887h-149v887h-146zM616 1188v174h164v-174h-164zM623 0v1010h149v-1010h-149z" />
<glyph unicode="&#xfb02;" horiz-adv-x="907" d="M18 887v123h146l3 89q1 30 7 78t16.5 73.5t30 57t47 48t70.5 28t98 11.5q31 0 88 -9v-122q-20 6 -47 6q-109 0 -136.5 -52.5t-27.5 -207.5h185v-123h-185v-887h-149v887h-146zM623 0v1366h149v-1366h-149z" />
<glyph unicode="&#xfb03;" horiz-adv-x="1396" d="M1108 1188v174h162v-174h-162zM1114 0v1010h150v-1010h-150zM507 887v123h146q2 59 3 86.5t6 77t15.5 74t30 58t47 49t69.5 28t97 12.5q57 0 115 -13v-122q-41 10 -72 10q-106 0 -134 -53.5t-28 -206.5h185v-123h-185v-887h-149v887h-146zM18 887v123h146q2 59 3 86.5 t6 77t15.5 74t30 58t47 49t69.5 28t97 12.5q57 0 115 -13v-122q-41 10 -72 10q-106 0 -134 -53.5t-28 -206.5h185v-123h-185v-887h-149v887h-146z" />
<glyph unicode="&#xfb04;" horiz-adv-x="1396" d="M1114 0v1366h150v-1366h-150zM507 887v123h146q2 59 3 86.5t6 77t15.5 74t30 58t47 49t69.5 28t97 12.5q57 0 115 -13v-122q-41 10 -72 10q-106 0 -134 -53.5t-28 -206.5h185v-123h-185v-887h-149v887h-146zM18 887v123h146q2 59 3 86.5t6 77t15.5 74t30 58t47 49 t69.5 28t97 12.5q57 0 115 -13v-122q-41 10 -72 10q-106 0 -134 -53.5t-28 -206.5h185v-123h-185v-887h-149v887h-146z" />
</font>
</defs>
</svg>
